<?xml version="1.0" encoding="utf-8"?>
<!-- Generator: Adobe Illustrator 27.2.0, SVG Export Plug-In . SVG Version: 6.00 Build 0)  -->
<svg version="1.1" id="_x33_15274262343_1" xmlns="http://www.w3.org/2000/svg" xmlns:xlink="http://www.w3.org/1999/xlink" x="0px"
	 y="0px" viewBox="0 0 337.8 79.9" style="enable-background:new 0 0 337.8 79.9;" xml:space="preserve">
<style type="text/css">
	.st0{fill-rule:evenodd;clip-rule:evenodd;fill:#005BAC;}
</style>
<g>
	<path class="st0" d="M236.2,11.9L236.2,11.9l-0.3,0l0-0.3c0-1.1,1.4-2.7,2.8-3.5c0.3-0.2,0.5-0.3,0.8-0.4c0.3-0.1,0.5-0.2,0.7-0.2
		h0l0.1,0h0c1.1,0,2.4,0,3.4,0.3c1.1,0.3,1.9,0.8,2.2,1.8l0.1,0.2l-0.2,0.1c-1.5,0.4-2,0.4-2.9,0.5c-0.5,0-1.1,0.1-2.1,0.3
		c-0.8,0.1-1.6,0.4-2.3,0.6C237.5,11.6,236.8,11.8,236.2,11.9L236.2,11.9L236.2,11.9z M311.2,17.5L311.2,17.5
		c-0.1-0.1-0.2-0.1-0.4-0.1h-0.2c-0.6,0-0.9,0.6-1.1,1.1l-0.1,0.1l0.2,0.7c0.2,0.1,0.3,0.1,0.4,0.1v0c0.1,0,0.1,0.1,0.4,0.1h0v0
		c0.3,0,0.5-0.2,0.7-0.4c0.2-0.3,0.3-0.6,0.3-1h0v0v-0.2C311.2,17.7,311.2,17.5,311.2,17.5L311.2,17.5z M308.4,12.1L308.4,12.1
		L308.4,12.1l0,1v0h0c0,0.2,0.1,0.4,0.2,0.5c0.1,0.1,0.3,0.2,0.5,0.2v0h0h0.2c0.5,0,3.6-5,5.4-8.2c0.4-0.6,0.7-1.2,0.9-1.6
		c0.2-0.4,0.4-0.7,0.4-0.8l0,0l0,0l0.1-0.2l0.2,0c1,0.1,2.4,0.8,3.1,1.7c0.1,0.2,0.3,0.4,0.3,0.6c0.1,0.2,0.1,0.4,0.1,0.6l0,0l0,0
		v0.5c0,1-1.2,1.9-2.7,3c-1.9,1.4-4.3,3.2-4.3,5.4V15c0,1.1,0.8,1.6,1.6,2.1c0.6,0.4,1.3,0.8,1.7,1.4l0.1,0.1l-0.1,0.1l-0.1,0.1l0,0
		c-0.1,0.2-0.2,0.3-0.2,0.7h0c0,0.3,0.1,0.4,0.2,0.5l0,0c0,0,0.1,0.1,0.1,0.2c0.2-0.1,0.5-0.1,0.7-0.2c0.8-0.2,1.8-0.5,2.5-0.5v0h0
		c1.8,0,2.4,0.5,3.1,0.9c0.3,0.2,0.6,0.4,1.1,0.6L324,21l0,0.2l-0.1,2.4l0,0.2l-0.2,0c-0.8,0.2-2.3,0.8-3.6,1.4
		c-1.2,0.5-2.3,1-2.7,1l0,0h0c-0.3,0-0.4-0.1-0.5-0.3v0c-0.1-0.1-0.1-0.2-0.1-0.3l-0.1-0.1l0.1-0.1c0.2-0.3,0.6-0.6,1-0.9
		c0.6-0.4,1.3-0.9,1.3-1.4v-0.5c0-0.1,0-0.1,0-0.2c-0.1-0.3-0.4-0.4-0.9-0.4c-0.6,0-1.3,0.1-2,0.2c-1.6,0.3-3.4,1-3.8,1.2
		c-0.7,0.3-1.4,0.6-2.2,0.8h0c-1.5,0.5-3,1-3.9,2.2c0.1,0,0.1,0.1,0.3,0.1l0.4-0.1v0l4.6-0.7v0c0.4-0.1,0.6,0,0.9,0.1
		c0.1,0,0.2,0.1,0.4,0.1l0.2,0v0.2v1.4v0.2l-0.2,0.1c-0.5,0.1-1.3,0.7-1.7,1.4v0c-0.1,0.1-0.1,0.3-0.2,0.4c0,0.1-0.1,0.3-0.1,0.4h0
		v0c0,0.8,0.3,1.2,0.7,1.6c0.7,0.8,1.5,1.8,1.5,5.1v0v0l2.6,0.2h1.7c0.9,0,1.6,0.3,2.2,0.8c0.6,0.4,1,1,1.4,1.5l0.1,0.1l0,0.1
		c-0.1,0.6-0.5,1.5-1.1,2c-0.1,0.1-0.2,0.2-0.4,0.2c-0.1,0.1-0.3,0.1-0.4,0.1l0,0h0h-1.9c-0.2,0-0.8-0.3-1.4-0.6
		c-0.9-0.5-1.9-1-2.4-1v0h0v0c-1.7,0-1.9,2.1-2.2,4.1c-0.1,0.7-0.1,1.4-0.3,1.9v0l0,0c-0.3,1-1.1,3.5-2.1,4.8
		c-0.2,0.3-0.4,0.5-0.7,0.7c-0.2,0.2-0.5,0.3-0.8,0.3l0,0h0h-4.8c-0.5,0-0.8-0.2-1-0.6l0,0c-0.2-0.3-0.2-0.7-0.2-1.1l0-0.3l0.3,0
		c2.8-0.1,4.7-0.6,5.9-1.8c1.2-1.2,1.7-3.1,1.8-5.8l-0.8-0.9c-0.8,0.3-3.2,1-5.1,1.3c-0.4,0.1-0.8,0.1-1.1,0.2
		c-0.4,0.1-0.7,0.1-1,0.1v0h0h-0.2c-0.5,0-0.6-0.1-0.9-0.1c-0.1,0-0.2-0.1-0.4-0.1l-0.3-0.1l0.2-0.3c0.1-0.2,0.2-0.4,0.3-0.6
		c0.2-0.4,0.3-0.6,0.5-0.7c0.2-0.2,0.5-0.3,1.2-0.4v0l0.4-0.1c0.6-0.1,1-0.3,1.4-0.5c0.4-0.2,0.9-0.3,1.5-0.5
		c0.8-0.2,3.1-0.8,4.4-1.6c0.2-0.1,0.4-0.3,0.5-0.4c0.1-0.1,0.2-0.2,0.2-0.3h0v0v-0.2c0-0.8-0.5-1.4-1.1-1.9
		c-0.4-0.4-0.7-0.8-0.9-1.2l0,0l0,0l0,0c-0.2-0.5-0.2-1.1-0.2-1.7c0-0.9,0-1.8-0.7-1.8c-0.5,0-0.9,0.2-1.3,0.4
		c-0.5,0.3-1.1,0.6-2.1,0.6c-0.5,0-0.6-0.1-0.8-0.3c-0.1-0.1-0.2-0.1-0.3-0.2l-0.1-0.1l0-0.2c0-0.2,0.1-0.3,0.1-0.4
		c0.1-0.2,0.1-0.3,0.1-0.7v-0.5v0h0c0-0.1,0-0.3-0.1-0.4l0,0c0-0.1-0.1-0.1-0.1-0.1v0h0c-0.9,0-3.7,1.8-5.4,2.8
		c-0.4,0.3-0.8,0.5-1,0.6l0,0l0,0c-0.5,0.3-1,0.7-1.5,1.1c-0.5,0.4-1,0.7-1.4,1l0,0l0,0l0,0c-0.9,0.5-1.4,0.8-2,1
		c-0.4,0.2-0.9,0.4-1.5,0.7l-0.1,0.1l-0.1-0.1l-1.4-1l-0.1-0.1l0-0.2c0.5-2.2,1.8-2.5,3.4-3c0.8-0.2,1.8-0.5,2.7-1
		c0.8-0.4,3.4-1.9,4.8-3.1c0.3-0.2,0.5-0.4,0.6-0.6c0.1-0.2,0.2-0.3,0.2-0.4h0v0V26c0,0-0.1-0.2-0.2-0.5c-0.5-0.9-1.4-2.8-1.4-5.2
		l-0.1-0.2l0-0.1l0-0.1l1.6-13.7l0-0.1l0.1-0.1c0.1-0.1,0.2-0.2,0.3-0.2c0.2-0.2,0.4-0.3,0.8-0.3h0.2h0v0c0.5,0,1.3,0.4,1.9,0.9
		c0.7,0.5,1.2,1.1,1.2,1.5l0,0v0c0,0.8-0.6,1.9-1.4,3.3c-1,1.8-2.2,4-2.2,5.8h0v0v1.2c0,0.5,0.4,0.6,0.8,0.8c0.1,0,0.2,0.1,0.3,0.1
		l0.6-1l0.1-0.1l0.1,0l1.2-0.3l0.3-0.1l0,0.4c-0.1,1.2-0.5,2-0.9,2.8l0,0c-0.4,0.7-0.7,1.4-0.7,2.3h0v1v0h0c0,0.2,0.1,0.4,0.2,0.5
		c0.1,0.1,0.3,0.2,0.5,0.2v0h0h0.5c0.6,0,1.5-0.5,2-1c0.1-0.1,0.2-0.2,0.3-0.3c0.1-0.1,0.1-0.2,0.2-0.2v0l0,0h0
		c0.3-0.7,0.2-1.5,0.1-2.4c-0.1-0.5-0.1-1-0.1-1.6v-1.4c0-1.8,0-5.5,0.4-8.7c0.4-3.3,1.2-6.2,2.8-6.2h0.2h0v0c0.4,0,0.7,0.2,0.9,0.5
		l0,0c0.2,0.3,0.3,0.6,0.3,1h0v0c0,1.4-0.5,2.7-1,4.1C308.9,9.8,308.4,11,308.4,12.1L308.4,12.1z M152.6,22.7h-0.2h0v0
		c-0.4,0-1,0.1-1.4,0.3c-0.4,0.2-0.7,0.4-0.7,0.7h0v0h0l0,1l1.5,0.5l0.2,0.1v0.2V27c0,0.4,0.2,0.5,0.4,0.6c0.1,0,0.2,0.1,0.2,0.1
		c0.6-0.4,1.5-1.3,2-2.2h0c0.1-0.2,0.2-0.4,0.3-0.5c0.1-0.2,0.1-0.4,0.1-0.5h0v0v-0.5v0h0c0-0.4-0.3-0.7-0.8-0.9
		C153.7,22.8,153.1,22.7,152.6,22.7L152.6,22.7L152.6,22.7L152.6,22.7z M141.3,23.5c-0.1,0.3-0.2,0.6-0.3,1c0.1,0.1,0.1,0.1,0.2,0.1
		l0,0c0.1,0.1,0.2,0.2,0.5,0.2h0v0c0.4,0,1.7-0.7,2.8-1.7c1.1-0.9,2.2-2.1,2.2-2.9h0v0v0h0c0-0.4-0.2-0.9-0.5-1.3
		c-0.3-0.4-0.5-0.6-0.7-0.6v0h0c-1.9,0-3.1,2-3.9,4C141.6,22.7,141.5,23.1,141.3,23.5L141.3,23.5z M152.9,15.8
		c-1.3,0.9-2.5,1.7-2.5,2.5c0,1,1.6,1.2,3.5,1.5c2.8,0.4,6.1,0.8,6.1,4.1v1.2c0,1.6-2.4,2.7-5,3.8c-1.8,0.8-3.6,1.6-4.6,2.6
		c-0.8,0.8-0.9,1.8,0.4,3c1,0.9,3,2,4.8,2.9c0.4,0.2,0.7,0.3,1,0.5c0.3,0.1,0.6,0.3,0.9,0.4l0,0l0,0v0c0.8,0.3,1.4,0.5,2,0.7
		c0.6,0.2,1.3,0.3,2.2,0.4c1.6,0.3,2.1,0.1,2.8,0c0.5-0.1,1-0.2,2-0.2h0v0c0.5,0,1,0.2,1.4,0.4c0.4,0.3,0.6,0.7,0.6,1.3h0v0v0l0,0
		c0,0.7-0.9,1.2-1.9,1.6c-1,0.4-2.2,0.6-2.9,0.6v0h0h-4.3c-1.4,0-4.2-2-6.7-3.8c-1.2-0.8-2.2-1.6-3-2l-1.2,0.8c0,2-0.1,5.2-0.7,7.9
		c-0.6,2.8-1.7,5.2-3.7,5.2c-1.1,0-1.4-0.4-1.7-1c-0.1-0.1-0.1-0.2-0.2-0.3l-0.1-0.1l0.1-0.1c0.7-1.1,1.1-1.8,1.4-2.5
		c0.3-0.8,0.5-1.7,0.8-3.2c0.2-1.1,0.5-2.5,0.5-3.7c0-1.1-0.1-2.1-0.7-2.6c-2.2,1.2-3.3,2.3-4.9,3.9l0,0c-0.2,0.2-0.4,0.4-0.6,0.6h0
		c-0.5,0.5-1.2,1.3-1.9,2.1c-1.2,1.4-2.5,2.9-3.3,3.4l0,0l0,0l-0.1,0.1l-0.1-0.1l-0.7-0.5l-0.1-0.1l0-0.2c0.6-2.6,4.9-6.8,8.3-10.1
		c2.3-2.2,4.1-4,4.1-4.5h0v0v-0.2c0-0.5-0.1-0.7-0.1-0.9c-0.1-0.2-0.1-0.4,0-1c0.2-0.6,0.4-0.9,0.6-1c0.1-0.1,0.2-0.2,0.2-0.5v0h0
		c0-0.4-0.1-0.7-0.3-1h0c-0.2-0.2-0.4-0.4-0.7-0.4v0h0h-0.2c-0.7,0-1.2,1.1-1.8,2.2c-0.7,1.4-1.5,2.9-2.8,2.9h-0.5h0v0
		c-0.6,0-1.3-0.7-1.7-1.6c-0.4-0.8-0.7-1.8-0.7-2.5h0v0v-1.2c0-0.4,1.4-2.8,2.7-5c1.1-1.8,2.1-3.4,2.1-3.6h0v0c0-0.8-0.4-1.4-1-1.8
		c-0.1-0.1-0.2-0.1-0.3-0.2h0c-0.1-0.1-0.2-0.1-0.4-0.1v0l0,0l-0.2-0.1v-0.2V14v-0.2l0.2,0c1.4-0.3,5.2-1.8,7.2-3.4
		c0.4-0.3,0.7-0.6,0.9-0.9c0.2-0.3,0.3-0.5,0.3-0.7h0v0c0-0.5-0.3-1.2-0.6-1.8c-0.3-0.7-0.6-1.4-0.6-2h0v0V4.7v0h0
		c0-0.5,0.4-1.1,0.9-1.5c0.5-0.4,1.2-0.7,1.8-0.7v0h0h0v0c1.2,0,2.3,0.7,3,1.7c0.8,1,1.3,2.2,1.3,3.1h0v0c0,0.4-0.1,0.6-0.2,0.8
		C154.1,8.3,154,8.5,154,9v0.7c0,0.3,0.5,0.8,1,1.3c0.5,0.5,0.9,1,1,1.4l0,0v0C155.9,13.7,154.4,14.7,152.9,15.8L152.9,15.8z
		 M271.9,13.6c-1.2,1.2-2.4,2.5-2.4,4v0.5v0h0c0,0.6,0.3,1.2,0.7,1.7c0.4,0.4,1,0.7,1.7,0.7v0h0c0.3,0,0.7-0.1,1.1-0.1
		c0.5-0.1,1-0.2,1.6-0.2c1.2,0,2.2,0.4,2.2,2.2h0c0,2.1-2.8,2.2-5.2,2.3c-0.6,0-1.1,0-1.5,0.1l0,0c-1.3,0.1-2.6,1.6-3.2,3
		c-0.1,0.3-0.2,0.6-0.3,0.8c-0.1,0.3-0.1,0.5-0.1,0.7h0v0v1.9c0,1.7,2.5,3.9,4.7,5.3c0.4,0.3,0.8,0.5,1.2,0.7l0,0
		c0.4,0.2,0.7,0.4,1,0.5l0,0l0,0v0c0.7,0.3,1.3,0.6,1.9,0.9c0.9,0.4,1.8,0.8,2.9,1.2c0.2,0.1,0.4,0.1,0.6,0.2c1.6,0.5,3.3,1.1,4,2.4
		l0.2,0.3l-0.3,0.1c-0.7,0.2-1.3,0.4-1.9,0.6c-1.1,0.4-2.1,0.8-3.9,0.8H276c-2.5,0-4.8-2.9-6.8-5.5c-1.5-1.9-2.8-3.6-3.8-3.6v0h0
		c-0.5,0-0.9,0.9-1.5,2.2c-1.2,2.6-3.1,6.5-8.1,6.5h-3.1c-0.5,0-0.7-0.1-0.9-0.1c-0.1,0-0.2-0.1-0.3-0.1l-0.1,0l0-0.1l-0.3-1
		l-0.1-0.2l0.2-0.1c0.6-0.3,1.4-0.5,2.2-0.7c0.9-0.2,1.8-0.4,2.6-0.8l0,0l0,0h0c1.4-0.7,2.2-1.4,3.2-2.3l0.4-0.4
		c1.1-1,2.7-3.8,3.2-6.2c0.1-0.5,0.1-0.9,0.1-1.3c0-0.3-0.1-0.7-0.2-1c-2.3,0-4.7,0-4.7-2.9c0-0.3,0-0.4,0.1-0.6l0,0
		c0-0.1,0.1-0.2,0.1-0.7l0-0.2l0.2,0c2.8-0.1,4.5-0.6,5.7-1.7c1.2-1.1,1.9-2.7,2.6-4.9c0.1-0.2,0.2-0.6,0.3-0.9
		c0.6-1.8,0.9-2.8,1.2-5.2c0-0.4,0.1-1,0.1-1.7c0-2.1,0-4.7,1.2-4.7h1h0v0c0.7,0,1.6,0.6,2.4,1.4c0.8,0.8,1.4,1.7,1.4,2.5h0v0
		C274.3,11.1,273.1,12.4,271.9,13.6L271.9,13.6z M226.7,12.5c-1.2,1-1.9,1.5-3,3.8c0.4,0.2,0.8,0.3,1.2,0.4c0.8,0.2,1.4,0.4,1.4,1.1
		v1c0,0.8-0.3,1.2-0.6,1.7c-0.3,0.4-0.6,0.9-0.6,1.6c0,0.8,0.4,1.2,0.7,1.6c0.3,0.3,0.5,0.6,0.5,1v0.7c0,1.3-2,4.7-2.7,5.9l-0.1,0.1
		l0.1,0.3l2.3-1.3l0.4-0.2v0.4v0h0c0,1-0.9,3.6-1.9,5.9c-1,2.4-2.2,4.5-2.7,4.5l0,0h0c-0.9,0-1.5-0.6-1.8-1.4
		c-0.3-0.7-0.4-1.7-0.4-2.5c0-2.8,1.3-5.2,2.3-7c0.6-1.1,1.1-2,1.1-2.6h0v0v-1.2c0-0.1-0.1-0.4-0.3-0.6c-0.3-0.4-0.6-1-0.7-1.7v0
		l0,0c-0.1-0.6,0-1,0.1-1.4c0.1-0.3,0.2-0.7,0.2-1.4c-0.2,0-0.3-0.1-0.3-0.1c-0.1,0-0.1-0.1-0.4-0.1v0c-0.2,0-0.5,0.6-0.9,1.2
		c-0.7,1.2-1.6,2.6-2.9,2.6c-0.5,0-0.6-0.1-0.9-0.1c-0.1,0-0.2-0.1-0.4-0.1l-0.2,0v-0.2v-2.9c0-1,1.4-2.1,2.4-2.9
		c0.3-0.3,0.6-0.5,0.8-0.7v0l0,0l0,0c1.3-1.3,1.7-1.9,2.7-3.2l0.4-0.5c0.5-0.6,0.9-1.3,1.2-2.1c0.4-0.8,0.7-1.5,1-2.3
		c0.1-0.3,0.9-2.5,1.3-3.9c0.1-0.2,0.2-0.5,0.2-0.7c0.1-0.2,0.1-0.3,0.1-0.4v0l0,0l0-0.2l0.2,0c0.5,0,0.6-0.1,0.7-0.1h0
		c0.1-0.1,0.2-0.1,0.6-0.1v0c0.3,0,0.7,0.2,1.1,0.4c0.1,0.1,0.3,0.2,0.4,0.3c0.1,0.1,0.3,0.2,0.4,0.4c0.5,0.6,1,1.3,1,1.7
		c0,0.4-0.1,0.8-0.3,1.2C230.1,8.8,230,9,230,9.1c-0.1,0.3-0.3,0.5-0.5,0.8v0c-0.3,0.5-0.7,0.9-1,1.1
		C227.8,11.7,227.2,12.1,226.7,12.5L226.7,12.5L226.7,12.5z M185.2,31.8c-0.2,0.5-0.2,1.1-0.2,1.7h0v1.7h0c0,0.3,0.1,0.4,0.3,0.5
		c0.1,0,0.1,0.1,0.2,0.1c0.4-0.2,0.8-0.5,1-0.8c0.2-0.3,0.4-0.8,0.4-1.6h0v-1.7h0v0h0c0-0.2-0.1-0.4-0.2-0.5
		c-0.1-0.1-0.3-0.2-0.5-0.2v0h0h-0.2C185.5,31.1,185.3,31.4,185.2,31.8L185.2,31.8z M179.2,26.3L179.2,26.3L179.2,26.3L179.2,26.3
		L179.2,26.3c0,0.5,0.2,1.1,0.4,1.6c0.2,0.4,0.5,0.8,0.8,0.8v0h0c0.8,0,2.4-0.9,3.5-1.7c0.2-0.2,0.4-0.3,0.6-0.4
		c0.2-0.1,0.3-0.3,0.4-0.4v0l0,0l0,0c0.6-0.6,1.2-1.2,1.6-1.9c0.4-0.7,0.7-1.6,0.7-2.7v-0.7c0-0.3-0.1-0.4-0.3-0.6
		c-0.1-0.1-0.1-0.2-0.2-0.2l-1.8,0.6l-0.1,0l-0.1-0.1l-1.2-0.7l-0.1-0.1l0-0.1l0-1l-0.7-0.4c-1,0.6-2.1,3-2.8,5.3
		c-0.1,0.5-0.3,0.9-0.3,1.3C179.3,25.3,179.2,25.8,179.2,26.3L179.2,26.3z M184.3,15.9L184.3,15.9L184.3,15.9l0,0.3v0h0
		c0,0.3,0.1,0.4,0.3,0.5c0.2,0.1,0.5,0.2,0.9,0.2v0h0h0.7c1.3,0,1.4-2.4,1.4-3.9c0-0.2,0-0.4,0-0.6c-1,0.2-2.2,1.4-2.9,2.4h0
		c-0.1,0.2-0.3,0.4-0.3,0.6C184.3,15.6,184.3,15.8,184.3,15.9L184.3,15.9L184.3,15.9z M203.2,15.7L203.2,15.7L203.2,15.7
		c0,0.8,0.4,1.1,0.8,1.5c0.2,0.2,0.4,0.4,0.6,0.6c0.7,0,1.4,0.1,2,0.3c0.7,0.2,1.2,0.7,1.2,1.4v1c0,1.6-1.2,1.9-2.4,2.2
		c-1,0.3-1.9,0.5-2.1,1.5c-0.1,0.6,0,0.9,0,1.1c0.1,0.5,0.2,0.7-0.9,1.8c-0.1,0.1-0.2,0.2-0.3,0.3c-0.6,0.6-1,1-1,2.2h0v1h0
		c0,0.9,0.1,2.2,0.2,3.7c0.1,2.1,0.2,4.5,0.2,6.9c0,4.8-0.6,9.1-3.1,9.1v0c-0.5,0-0.6-0.1-0.8-0.3c-0.1-0.1-0.1-0.1-0.2-0.2
		l-0.1-0.1l0-0.1l-0.3-2.6l0,0v0v-3.1c0-1.2,0.2-2.8,0.4-4.4c0.3-2.5,0.6-5.1,0.2-6.2c-0.9,0.5-1.4,1.1-1.9,1.7
		c-0.6,0.7-1.3,1.6-2.7,2.4c-0.5,0.3-1,0.5-1.4,0.7c-0.6,0.2-1.1,0.5-1.5,0.8l0,0l0,0c-0.5,0.4-0.7,0.7-0.8,0.9
		c-0.3,0.4-0.6,0.8-1.7,1.4l-0.1,0.1l-0.1-0.1c-0.4-0.2-0.7-0.3-0.8-0.3c-0.3-0.1-0.5-0.1-1.3-0.7c-0.2-0.1-0.4-0.3-0.5-0.4
		c-0.4-0.4-0.8-0.7-1.4-1c-1.5-0.8-2.6,0.3-3.6,1.4l-0.2,0.2c-0.6,0.6-1.1,1.1-1.7,1.6c-1.7,1.7-3.2,3.1-4.7,5.4l-0.1,0.2l-0.2-0.1
		l-1-0.5l-0.2-0.1l0-0.2c0.2-3,3-5.9,5.7-8.7c1.8-1.9,3.6-3.8,4.6-5.7l-0.1-0.7c-0.2-0.1-0.3-0.1-0.4-0.1h0c-0.1,0-0.1-0.1-0.4-0.1
		c-0.4,0-0.8,0-1.1,0.1c-1.3,0.1-2,0.2-2.9-1.7c-0.3-0.8-0.6-1.4-0.8-2.2c-0.2-0.8-0.3-1.6-0.3-2.6v-3.6c0-2.4,0.4-5.2,1.4-7.1
		c0.2-0.4,0.4-0.7,0.7-1c0.3-0.3,0.5-0.6,0.9-0.7l0,0l0,0l0.4-0.3l0,0.5l-0.1,2.6c0,0.3,0.3,0.8,0.5,1.1l0,0
		c1.9-1.1,2.9-2.9,3.9-4.8c0.6-1.2,1.3-2.3,2.1-3.4c1.1-1.3,2.5-1.9,3.9-1.9v0c0.6,0,1.2,0.1,1.8,0.3c0.6,0.2,1.1,0.5,1.5,0.9
		c1,0.8,1.6,2,1.6,3.4c0,0.7-0.6,1.2-1.4,1.9c-1.2,1-2.7,2.3-2.9,4.6c-0.1,1.3-0.3,2.6-0.5,3.9c-0.3,1.9-0.7,3.9-0.7,5.9h0v0v0h0
		c0,0.8,0.1,2.9,0.3,4.8c0.2,1.8,0.6,3.4,1.1,3.4v0h0v0l0,0c0.6,0,2.5-2,4.2-3.9c1.7-1.9,3.2-3.8,3.3-4c0-0.4,0-0.5-0.1-0.7
		c0-0.1-0.1-0.2-0.1-0.3c-0.2-0.1-0.3-0.1-0.4-0.1l0,0c-0.1,0-0.1-0.1-0.4-0.1c-0.3,0-0.8,0.2-1.5,0.6c-1,0.5-2.3,1-3.5,1.1
		c-0.1,0-0.2,0-0.3,0l-0.2,0l-0.1-0.2l-0.3-0.9l0-0.1l0.1-0.1c1.3-1.9,3.1-2.7,4.8-3.4c1.9-0.8,3.6-1.6,4.1-3.7
		c0.3-1,0.5-1.9,0.7-2.7c0.9-3.5,1.4-5.3,1.3-11.6l0-0.1l0.1-0.1l1.5-1.1l0.2-0.2l0.1,0.2c0.2,0.3,0.5,0.5,0.9,0.8
		c0.7,0.4,1.3,0.9,1.3,2c0,1.6-0.9,3.5-1.7,5.3C203.8,13.5,203.2,14.8,203.2,15.7L203.2,15.7z M105.5,12.4l0.7-1.2l0.1-0.1l0.1,0
		c2.1-0.1,4,0.2,5.4,1c1.4,0.9,2.3,2.3,2.3,4.7c0,2.2-0.7,4.3-1.4,6.3c-0.7,2.2-1.5,4.6-1.5,7.3V33c0,0.4,0,0.5,0.1,0.7
		c0,0.1,0,0.1,0.1,0.2h0.8c1.3,0,2.5-0.7,3.5-1.3c0.5-0.3,1-0.6,1.5-0.8l0,0c0.5-0.2,1-0.4,1.4-0.5c1.3-0.5,2-0.8,2.9-2l-0.8-5.2
		l0-0.1l0-0.1l0.1-0.2c0-0.3,0.1-0.5,0.2-0.7c0.2-0.2,0.4-0.2,0.7-0.2h0.2h0l0,0c0.8,0,2.3,2.1,3.6,4.4c1.3,2.3,2.4,4.9,2.4,5.9h0v0
		v0h0c0,0.7-0.4,1.7-0.9,2.4c-0.6,0.8-1.4,1.4-2.2,1.4v0h0h-0.2c-1.5,0-1.8-1.1-2.1-2.2c-0.2-0.8-0.4-1.6-1.3-1.6
		c-0.6,0-2,1.3-2.7,2c-0.2,0.2-0.3,0.3-0.4,0.4l0,0c-1.1,1-1.8,1.1-3,1.3c-0.4,0.1-0.8,0.1-1.3,0.3l-0.8,0.2c-2.7,0.6-6,1.3-8.1,2.4
		v0l0,0l0,0c-2,1-3.1,1.9-4.2,2.8h0c-0.7,0.6-1.5,1.2-2.6,1.9c-0.8,0.5-1.6,0.8-2.3,0.8c-0.6,0-1-0.2-1.5-0.4
		c-0.4-0.3-0.8-0.7-1.1-1.1c-0.7-1-1-2.4-1-3.9v-0.2c0-2.2,1.1-5.5,2.7-8c0.7-1,1.5-1.9,2.3-2.5c0.9-0.6,1.8-0.8,2.7-0.5
		c0.7,0.2,1.4,0.7,2,1.6c0,0,0.5,0.5,1,1c0.5,0.5,1,1,1.2,1.3l1.3-0.2l0.6-8.9l-0.1-5.5l-0.5-5.3L105.5,12.4L105.5,12.4L105.5,12.4z
		 M104.4,34.6c-0.3-0.3-0.6-0.7-0.6-1.7c-0.2-0.2-0.7-0.6-1.2-1.1c-0.4-0.4-0.8-0.8-1.1-0.9c0,0,0.1-0.1,0-0.1
		c-1.6,0.1-1.9,0.7-2.3,2L99.2,33c-0.1,0.3-0.2,0.6-0.4,1c-0.3,0.9-0.7,2-0.7,2.8h0v0c0,0.2,0,0.3,0.1,0.4v0c0,0.1,0.1,0.2,0.1,0.4
		c0.2,0.1,0.3,0.1,0.4,0.1c0.1,0,0.1,0,0.4,0h0v0c0.9,0,2.4-0.2,3.6-0.6h0c1.2-0.4,2.1-1,2.1-1.8h0v0
		C104.8,35,104.6,34.8,104.4,34.6L104.4,34.6z M181.9,22.3c0-0.1,0.1-0.2,0.1-0.4l0-0.2l0.2,0l1.2-0.2l0.1,0l0.1,0
		c0.1,0,0.2,0.1,0.3,0.1c0.6,0.3,1.1,0.6,1.1,1.7v0.5v0h0c0,0.4-0.2,0.7-0.5,0.9h0c-0.3,0.2-0.6,0.3-1,0.3v0h0h0v0
		c-0.4,0-0.9-0.3-1.2-0.7c-0.3-0.4-0.5-0.9-0.5-1.5h0v0C181.8,22.5,181.9,22.5,181.9,22.3L181.9,22.3z M234.2,21.2v0.2v0h0
		c0,0.2,0.1,0.4,0.2,0.5c0.1,0.1,0.3,0.2,0.5,0.2v0h0h0.5h0v0c0.2,0,0.4-0.1,0.5-0.2c0.1-0.1,0.2-0.3,0.2-0.5h0v0v0h0
		c0-0.2-0.1-0.5-0.3-0.8c-0.1-0.2-0.3-0.4-0.4-0.4v0h0h0v0c-0.3,0-0.6,0.1-0.8,0.3C234.4,20.7,234.2,21,234.2,21.2L234.2,21.2
		L234.2,21.2L234.2,21.2z M231.9,18.5c-0.5,0.6-0.9,1.2-0.9,2.5c0,2.6,1.4,3.5,2.9,4.5c0.8,0.6,1.7,1.1,2.2,2
		c-0.3,1.3-1.3,2.2-2.1,2.9c-0.7,0.6-1.2,1.1-1.2,1.7c0,1,0.3,1.5,0.7,2c0.4,0.5,0.8,1.1,0.8,2.6v0.5h0c0,1.7-0.8,2.1-1.6,2.6
		c-1,0.5-2,1.1-2.5,3.2l0,0.1l0.1,0.1l1.3,1.4l0.1,0.1h0.1c2,0,3.8-0.4,5.5-0.8c0.6-0.2,1.3-0.3,1.9-0.4l0,0
		c0.4-0.1,0.7-0.1,1.1-0.2c2.2-0.3,4.4-0.7,4.4-3.4c0-1.5-1.4-1.5-2.9-1.6c-1.5-0.1-3.1-0.1-3.1-1.8h0v0h0c0-0.8,0.7-2,1.4-3
		c0.6-1,1.2-1.9,1.2-2.5c0-1.1-0.5-1.9-1.1-2.8c-0.7-1.1-1.5-2.3-1.5-4.4v-0.2c0-1.4,0.1-2.6,0.5-3.5c0.3-0.9,0.9-1.5,1.8-2.1
		l3.7,1.5l0.1,0l0.1-0.1l0,0l0,0c0.1-0.1,0.2-0.1,0.3-0.2l0,0c0.5-0.3,1-0.5,1-1.2v-0.2v0h0c0-0.7-1.1-1.9-2.5-2.8
		c-1.3-0.9-2.9-1.7-3.8-1.7v0h0h-1c-1,0-1.4,1.1-1.8,2.4c-0.2,0.5-0.3,1-0.6,1.5c-0.6,1.2-1.5,2-3.7,0.9l-0.2-0.1l-0.1,0.2
		C232.2,18.1,232,18.3,231.9,18.5z"/>
	<g>
		<path class="st0" d="M83.3,68.2l1.6-0.2c0.1,0.5,0.3,0.9,0.6,1.2c0.3,0.2,0.7,0.4,1.2,0.4c0.5,0,0.9-0.1,1.2-0.3
			c0.3-0.2,0.4-0.5,0.4-0.8c0-0.2-0.1-0.3-0.2-0.5c-0.1-0.1-0.3-0.2-0.6-0.3c-0.2-0.1-0.6-0.2-1.3-0.3c-0.9-0.2-1.5-0.5-1.8-0.8
			c-0.5-0.4-0.7-1-0.7-1.6c0-0.4,0.1-0.8,0.3-1.1c0.2-0.4,0.6-0.6,1-0.8c0.4-0.2,1-0.3,1.6-0.3c1,0,1.8,0.2,2.3,0.7
			c0.5,0.4,0.8,1,0.8,1.8l-1.6,0.1c-0.1-0.4-0.2-0.7-0.4-0.9c-0.2-0.2-0.6-0.3-1-0.3c-0.5,0-0.8,0.1-1.1,0.3
			c-0.2,0.1-0.3,0.3-0.3,0.5c0,0.2,0.1,0.4,0.2,0.5c0.2,0.2,0.7,0.3,1.5,0.5c0.8,0.2,1.4,0.4,1.7,0.6c0.4,0.2,0.7,0.5,0.9,0.8
			c0.2,0.3,0.3,0.8,0.3,1.3c0,0.5-0.1,0.9-0.4,1.3c-0.3,0.4-0.6,0.7-1.1,0.9c-0.5,0.2-1,0.3-1.7,0.3c-1,0-1.8-0.2-2.3-0.7
			C83.7,69.8,83.4,69.1,83.3,68.2L83.3,68.2z M92.6,62.8v2.9c0.5-0.6,1.1-0.9,1.8-0.9c0.4,0,0.7,0.1,1,0.2c0.3,0.1,0.5,0.3,0.6,0.5
			c0.1,0.2,0.2,0.4,0.3,0.7c0.1,0.2,0.1,0.6,0.1,1.1v3.4h-1.5v-3c0-0.6,0-1-0.1-1.2c-0.1-0.2-0.2-0.3-0.3-0.4
			c-0.1-0.1-0.3-0.1-0.6-0.1c-0.3,0-0.5,0.1-0.7,0.2c-0.2,0.1-0.3,0.3-0.4,0.6c-0.1,0.2-0.1,0.6-0.1,1.1v2.9h-1.5v-8H92.6L92.6,62.8
			z M99,66.8l-1.4-0.3c0.2-0.6,0.4-1,0.8-1.2c0.4-0.3,0.9-0.4,1.7-0.4c0.7,0,1.2,0.1,1.5,0.2c0.3,0.2,0.6,0.4,0.7,0.6
			c0.1,0.2,0.2,0.7,0.2,1.4l0,1.8c0,0.5,0,0.9,0.1,1.1c0,0.2,0.1,0.5,0.3,0.8h-1.5c0-0.1-0.1-0.3-0.1-0.5c0-0.1,0-0.2-0.1-0.2
			c-0.3,0.3-0.5,0.4-0.8,0.6c-0.3,0.1-0.6,0.2-1,0.2c-0.6,0-1.1-0.2-1.4-0.5c-0.3-0.3-0.5-0.7-0.5-1.2c0-0.3,0.1-0.6,0.2-0.9
			c0.2-0.3,0.4-0.5,0.7-0.6c0.3-0.1,0.7-0.3,1.2-0.4c0.7-0.1,1.2-0.3,1.5-0.4v-0.2c0-0.3-0.1-0.5-0.2-0.6c-0.1-0.1-0.4-0.2-0.8-0.2
			c-0.3,0-0.5,0.1-0.6,0.2C99.3,66.3,99.1,66.5,99,66.8L99,66.8z M101.1,68c-0.2,0.1-0.5,0.1-0.9,0.2c-0.4,0.1-0.7,0.2-0.8,0.3
			c-0.2,0.1-0.3,0.3-0.3,0.5c0,0.2,0.1,0.4,0.2,0.6c0.2,0.2,0.4,0.2,0.6,0.2c0.3,0,0.5-0.1,0.8-0.3c0.2-0.1,0.3-0.3,0.4-0.5
			c0-0.1,0.1-0.4,0.1-0.7V68L101.1,68z M109.3,70.8h-1.5v-2.9c0-0.6,0-1-0.1-1.2c-0.1-0.2-0.2-0.3-0.3-0.4c-0.1-0.1-0.3-0.2-0.5-0.2
			c-0.3,0-0.5,0.1-0.7,0.2c-0.2,0.1-0.4,0.3-0.4,0.6c-0.1,0.2-0.1,0.7-0.1,1.3v2.6h-1.5V65h1.4v0.8c0.5-0.7,1.1-1,1.9-1
			c0.3,0,0.6,0.1,0.9,0.2c0.3,0.1,0.5,0.3,0.6,0.5c0.1,0.2,0.2,0.4,0.3,0.6c0.1,0.2,0.1,0.6,0.1,1V70.8L109.3,70.8z M116.2,70.8
			h-1.4v-0.8c-0.2,0.3-0.5,0.6-0.8,0.7c-0.3,0.2-0.6,0.2-1,0.2c-0.7,0-1.2-0.3-1.7-0.8c-0.5-0.5-0.7-1.3-0.7-2.2
			c0-1,0.2-1.7,0.7-2.2c0.5-0.5,1-0.8,1.7-0.8c0.6,0,1.2,0.3,1.7,0.8v-2.9h1.5V70.8L116.2,70.8z M112.1,67.8c0,0.6,0.1,1.1,0.3,1.3
			c0.2,0.4,0.6,0.6,1,0.6c0.4,0,0.7-0.2,0.9-0.4c0.2-0.3,0.4-0.7,0.4-1.3c0-0.7-0.1-1.1-0.4-1.4c-0.2-0.3-0.5-0.4-0.9-0.4
			c-0.4,0-0.7,0.1-0.9,0.4C112.2,66.8,112.1,67.2,112.1,67.8L112.1,67.8z M117.3,67.8c0-0.5,0.1-1,0.4-1.5c0.3-0.5,0.6-0.8,1.1-1.1
			c0.5-0.3,1-0.4,1.5-0.4c0.9,0,1.6,0.3,2.1,0.9c0.6,0.6,0.8,1.3,0.8,2.1c0,0.9-0.3,1.6-0.8,2.2c-0.6,0.6-1.3,0.9-2.1,0.9
			c-0.5,0-1-0.1-1.5-0.4c-0.5-0.2-0.8-0.6-1.1-1.1C117.5,69.1,117.3,68.5,117.3,67.8L117.3,67.8z M118.9,67.9c0,0.6,0.1,1,0.4,1.3
			c0.3,0.3,0.6,0.5,1,0.5c0.4,0,0.7-0.2,1-0.5c0.3-0.3,0.4-0.7,0.4-1.3c0-0.6-0.1-1-0.4-1.3c-0.3-0.3-0.6-0.5-1-0.5
			c-0.4,0-0.7,0.2-1,0.5C119,66.9,118.9,67.3,118.9,67.9L118.9,67.9z M129.7,70.8h-1.5v-2.9c0-0.6,0-1-0.1-1.2
			c-0.1-0.2-0.2-0.3-0.3-0.4c-0.1-0.1-0.3-0.2-0.5-0.2c-0.3,0-0.5,0.1-0.7,0.2c-0.2,0.1-0.4,0.3-0.4,0.6c-0.1,0.2-0.1,0.7-0.1,1.3
			v2.6h-1.5V65h1.4v0.8c0.5-0.7,1.1-1,1.9-1c0.3,0,0.6,0.1,0.9,0.2c0.3,0.1,0.5,0.3,0.6,0.5c0.1,0.2,0.2,0.4,0.3,0.6
			c0.1,0.2,0.1,0.6,0.1,1V70.8L129.7,70.8z M131.2,71.2l1.7,0.2c0,0.2,0.1,0.3,0.2,0.4c0.1,0.1,0.4,0.2,0.7,0.2
			c0.4,0,0.7-0.1,0.9-0.2c0.1-0.1,0.2-0.2,0.3-0.4c0-0.1,0.1-0.4,0.1-0.7v-0.8c-0.5,0.6-1,0.9-1.7,0.9c-0.8,0-1.4-0.3-1.8-1
			c-0.4-0.5-0.5-1.2-0.5-1.9c0-1,0.2-1.7,0.7-2.2c0.5-0.5,1-0.8,1.7-0.8c0.7,0,1.3,0.3,1.8,0.9V65h1.4v5.2c0,0.7-0.1,1.2-0.2,1.5
			c-0.1,0.3-0.3,0.6-0.5,0.8c-0.2,0.2-0.5,0.3-0.8,0.5c-0.3,0.1-0.8,0.2-1.3,0.2c-1,0-1.7-0.2-2.1-0.5c-0.4-0.3-0.6-0.8-0.6-1.3
			C131.1,71.3,131.1,71.2,131.2,71.2L131.2,71.2z M132.5,67.8c0,0.6,0.1,1.1,0.4,1.3c0.2,0.3,0.5,0.4,0.9,0.4c0.4,0,0.7-0.1,0.9-0.4
			c0.3-0.3,0.4-0.7,0.4-1.3c0-0.6-0.1-1-0.4-1.3c-0.2-0.3-0.6-0.4-0.9-0.4c-0.4,0-0.7,0.1-0.9,0.4C132.6,66.8,132.5,67.2,132.5,67.8
			L132.5,67.8z M141.2,62.8h1.6v4.3c0,0.7,0,1.1,0.1,1.3c0.1,0.3,0.2,0.6,0.5,0.8c0.3,0.2,0.6,0.3,1.1,0.3c0.5,0,0.8-0.1,1-0.3
			c0.2-0.2,0.4-0.4,0.4-0.7c0-0.3,0.1-0.7,0.1-1.4v-4.4h1.6V67c0,1,0,1.6-0.1,2c-0.1,0.4-0.2,0.7-0.5,1c-0.2,0.3-0.5,0.5-0.9,0.6
			c-0.4,0.2-0.9,0.2-1.5,0.2c-0.8,0-1.3-0.1-1.7-0.3c-0.4-0.2-0.7-0.4-0.9-0.7c-0.2-0.3-0.4-0.6-0.5-0.9c-0.1-0.5-0.2-1.1-0.2-2
			V62.8L141.2,62.8z M154.5,70.8h-1.5v-2.9c0-0.6,0-1-0.1-1.2c-0.1-0.2-0.2-0.3-0.3-0.4c-0.1-0.1-0.3-0.2-0.5-0.2
			c-0.3,0-0.5,0.1-0.7,0.2c-0.2,0.1-0.4,0.3-0.4,0.6c-0.1,0.2-0.1,0.7-0.1,1.3v2.6h-1.5V65h1.4v0.8c0.5-0.7,1.1-1,1.9-1
			c0.3,0,0.6,0.1,0.9,0.2c0.3,0.1,0.5,0.3,0.6,0.5c0.1,0.2,0.2,0.4,0.3,0.6c0.1,0.2,0.1,0.6,0.1,1V70.8L154.5,70.8z M156,64.2v-1.4
			h1.5v1.4H156L156,64.2z M156,70.8V65h1.5v5.8H156L156,70.8z M160.7,70.8l-2.3-5.8h1.6l1.1,2.9l0.3,1c0.1-0.3,0.1-0.4,0.2-0.5
			c0.1-0.2,0.1-0.3,0.2-0.5l1.1-2.9h1.6l-2.3,5.8H160.7L160.7,70.8z M168.6,69l1.5,0.3c-0.2,0.6-0.5,1-0.9,1.3
			c-0.4,0.3-0.9,0.4-1.6,0.4c-1,0-1.7-0.3-2.2-1c-0.4-0.5-0.6-1.2-0.6-2c0-1,0.3-1.7,0.8-2.2c0.5-0.5,1.1-0.8,1.9-0.8
			c0.9,0,1.5,0.3,2,0.9c0.5,0.6,0.7,1.4,0.7,2.6h-3.8c0,0.5,0.1,0.8,0.4,1.1c0.2,0.3,0.5,0.4,0.9,0.4c0.2,0,0.4-0.1,0.6-0.2
			C168.4,69.5,168.6,69.2,168.6,69L168.6,69z M168.7,67.4c0-0.4-0.1-0.8-0.3-1c-0.2-0.2-0.5-0.3-0.8-0.3c-0.3,0-0.6,0.1-0.8,0.4
			c-0.2,0.2-0.3,0.6-0.3,1H168.7L168.7,67.4z M173,70.8h-1.5V65h1.4v0.8c0.2-0.4,0.5-0.6,0.7-0.8c0.2-0.1,0.4-0.2,0.7-0.2
			c0.3,0,0.7,0.1,1,0.3l-0.5,1.3c-0.3-0.2-0.5-0.2-0.7-0.2c-0.2,0-0.4,0.1-0.5,0.2c-0.2,0.1-0.3,0.3-0.4,0.6c-0.1,0.3-0.1,1-0.1,1.9
			V70.8L173,70.8z M175.3,69.1l1.5-0.2c0.1,0.3,0.2,0.5,0.4,0.7c0.2,0.2,0.5,0.2,0.8,0.2c0.4,0,0.7-0.1,0.9-0.2
			c0.1-0.1,0.2-0.2,0.2-0.4c0-0.1,0-0.2-0.1-0.3c-0.1-0.1-0.2-0.1-0.5-0.2c-1.2-0.3-2-0.5-2.3-0.7c-0.5-0.3-0.7-0.7-0.7-1.3
			c0-0.5,0.2-0.9,0.6-1.3c0.4-0.3,1-0.5,1.8-0.5c0.8,0,1.4,0.1,1.8,0.4c0.4,0.3,0.6,0.6,0.8,1.1l-1.4,0.3c-0.1-0.2-0.2-0.4-0.4-0.5
			c-0.2-0.1-0.4-0.2-0.7-0.2c-0.4,0-0.7,0.1-0.9,0.2c-0.1,0.1-0.2,0.2-0.2,0.3c0,0.1,0.1,0.2,0.2,0.3c0.1,0.1,0.6,0.2,1.4,0.4
			c0.8,0.2,1.4,0.4,1.7,0.7c0.3,0.3,0.5,0.7,0.5,1.1c0,0.5-0.2,1-0.7,1.4c-0.4,0.4-1.1,0.6-2,0.6c-0.8,0-1.4-0.2-1.9-0.5
			C175.7,70.1,175.4,69.7,175.3,69.1L175.3,69.1z M182,64.2v-1.4h1.5v1.4H182L182,64.2z M182,70.8V65h1.5v5.8H182L182,70.8z
			 M187.8,65v1.2h-1v2.3c0,0.5,0,0.7,0,0.8c0,0.1,0.1,0.1,0.1,0.2c0.1,0,0.2,0.1,0.3,0.1c0.1,0,0.3-0.1,0.6-0.1l0.1,1.2
			c-0.4,0.2-0.8,0.2-1.2,0.2c-0.3,0-0.5,0-0.7-0.1c-0.2-0.1-0.4-0.2-0.5-0.4c-0.1-0.1-0.2-0.3-0.2-0.6c0-0.2,0-0.5,0-1.1v-2.5h-0.7
			V65h0.7v-1.1l1.5-0.9v2H187.8L187.8,65z M188.1,65h1.6l1.4,4.1l1.3-4.1h1.6l-2,5.6l-0.4,1c-0.1,0.3-0.3,0.6-0.4,0.8
			c-0.1,0.2-0.3,0.3-0.4,0.4c-0.2,0.1-0.4,0.2-0.6,0.3c-0.2,0.1-0.5,0.1-0.8,0.1c-0.3,0-0.6,0-0.9-0.1l-0.1-1.2
			c0.2,0,0.5,0.1,0.6,0.1c0.4,0,0.6-0.1,0.8-0.3c0.2-0.2,0.3-0.5,0.4-0.8L188.1,65L188.1,65z M197.7,67.8c0-0.5,0.1-1,0.4-1.5
			c0.3-0.5,0.6-0.8,1.1-1.1c0.5-0.3,1-0.4,1.5-0.4c0.9,0,1.6,0.3,2.1,0.9c0.6,0.6,0.8,1.3,0.8,2.1c0,0.9-0.3,1.6-0.8,2.2
			c-0.6,0.6-1.3,0.9-2.1,0.9c-0.5,0-1-0.1-1.5-0.4c-0.5-0.2-0.8-0.6-1.1-1.1C197.9,69.1,197.7,68.5,197.7,67.8L197.7,67.8z
			 M199.3,67.9c0,0.6,0.1,1,0.4,1.3c0.3,0.3,0.6,0.5,1,0.5c0.4,0,0.7-0.2,1-0.5c0.3-0.3,0.4-0.7,0.4-1.3c0-0.6-0.1-1-0.4-1.3
			c-0.3-0.3-0.6-0.5-1-0.5c-0.4,0-0.7,0.2-1,0.5C199.4,66.9,199.3,67.3,199.3,67.9L199.3,67.9z M204.2,65h0.8v-0.4
			c0-0.5,0.1-0.8,0.2-1.1c0.1-0.2,0.3-0.4,0.6-0.6c0.3-0.2,0.6-0.2,1.1-0.2c0.4,0,0.9,0.1,1.3,0.2l-0.2,1.1
			c-0.2-0.1-0.5-0.1-0.7-0.1c-0.2,0-0.4,0.1-0.5,0.2c-0.1,0.1-0.1,0.3-0.1,0.6V65h1.1v1.2h-1.1v4.6h-1.5v-4.6h-0.8V65L204.2,65z
			 M211.7,70.8v-8h5.5v1.3h-3.9v1.9h3.3v1.3h-3.3v3.4H211.7L211.7,70.8z M218.5,64.2v-1.4h1.5v1.4H218.5L218.5,64.2z M218.5,70.8V65
			h1.5v5.8H218.5L218.5,70.8z M226.8,70.8h-1.5v-2.9c0-0.6,0-1-0.1-1.2c-0.1-0.2-0.2-0.3-0.3-0.4c-0.1-0.1-0.3-0.2-0.5-0.2
			c-0.3,0-0.5,0.1-0.7,0.2c-0.2,0.1-0.4,0.3-0.4,0.6c-0.1,0.2-0.1,0.7-0.1,1.3v2.6h-1.5V65h1.4v0.8c0.5-0.7,1.1-1,1.9-1
			c0.3,0,0.6,0.1,0.9,0.2c0.3,0.1,0.5,0.3,0.6,0.5c0.1,0.2,0.2,0.4,0.3,0.6c0.1,0.2,0.1,0.6,0.1,1V70.8L226.8,70.8z M229.5,66.8
			l-1.4-0.3c0.2-0.6,0.4-1,0.8-1.2c0.4-0.3,0.9-0.4,1.7-0.4c0.7,0,1.2,0.1,1.5,0.2c0.3,0.2,0.6,0.4,0.7,0.6c0.1,0.2,0.2,0.7,0.2,1.4
			l0,1.8c0,0.5,0,0.9,0.1,1.1c0,0.2,0.1,0.5,0.3,0.8h-1.5c0-0.1-0.1-0.3-0.1-0.5c0-0.1,0-0.2-0.1-0.2c-0.3,0.3-0.5,0.4-0.8,0.6
			c-0.3,0.1-0.6,0.2-1,0.2c-0.6,0-1.1-0.2-1.4-0.5c-0.3-0.3-0.5-0.7-0.5-1.2c0-0.3,0.1-0.6,0.2-0.9c0.2-0.3,0.4-0.5,0.7-0.6
			c0.3-0.1,0.7-0.3,1.2-0.4c0.7-0.1,1.2-0.3,1.5-0.4v-0.2c0-0.3-0.1-0.5-0.2-0.6c-0.1-0.1-0.4-0.2-0.8-0.2c-0.3,0-0.5,0.1-0.6,0.2
			C229.7,66.3,229.6,66.5,229.5,66.8L229.5,66.8z M231.6,68c-0.2,0.1-0.5,0.1-0.9,0.2c-0.4,0.1-0.7,0.2-0.8,0.3
			c-0.2,0.1-0.3,0.3-0.3,0.5c0,0.2,0.1,0.4,0.2,0.6c0.2,0.2,0.4,0.2,0.6,0.2c0.3,0,0.5-0.1,0.8-0.3c0.2-0.1,0.3-0.3,0.4-0.5
			c0-0.1,0.1-0.4,0.1-0.7V68L231.6,68z M239.8,70.8h-1.5v-2.9c0-0.6,0-1-0.1-1.2c-0.1-0.2-0.2-0.3-0.3-0.4c-0.1-0.1-0.3-0.2-0.5-0.2
			c-0.3,0-0.5,0.1-0.7,0.2c-0.2,0.1-0.4,0.3-0.4,0.6c-0.1,0.2-0.1,0.7-0.1,1.3v2.6h-1.5V65h1.4v0.8c0.5-0.7,1.1-1,1.9-1
			c0.3,0,0.6,0.1,0.9,0.2c0.3,0.1,0.5,0.3,0.6,0.5c0.1,0.2,0.2,0.4,0.3,0.6c0.1,0.2,0.1,0.6,0.1,1V70.8L239.8,70.8z M246.4,66.7
			l-1.5,0.3c-0.1-0.3-0.2-0.5-0.3-0.7c-0.2-0.2-0.4-0.2-0.7-0.2c-0.4,0-0.7,0.1-0.9,0.4c-0.2,0.3-0.3,0.7-0.3,1.3
			c0,0.7,0.1,1.2,0.3,1.5c0.2,0.3,0.5,0.4,0.9,0.4c0.3,0,0.5-0.1,0.7-0.2c0.2-0.2,0.3-0.4,0.4-0.8l1.5,0.3c-0.2,0.7-0.5,1.2-0.9,1.6
			c-0.4,0.4-1,0.5-1.8,0.5c-0.8,0-1.5-0.3-2-0.8c-0.5-0.5-0.8-1.3-0.8-2.2c0-1,0.3-1.7,0.8-2.2c0.5-0.5,1.2-0.8,2-0.8
			c0.7,0,1.3,0.2,1.7,0.5C245.9,65.7,246.2,66.1,246.4,66.7L246.4,66.7z M250.9,69l1.5,0.3c-0.2,0.6-0.5,1-0.9,1.3
			c-0.4,0.3-0.9,0.4-1.6,0.4c-1,0-1.7-0.3-2.2-1c-0.4-0.5-0.6-1.2-0.6-2c0-1,0.3-1.7,0.8-2.2c0.5-0.5,1.1-0.8,1.9-0.8
			c0.9,0,1.5,0.3,2,0.9c0.5,0.6,0.7,1.4,0.7,2.6h-3.8c0,0.5,0.1,0.8,0.4,1.1c0.2,0.3,0.5,0.4,0.9,0.4c0.2,0,0.4-0.1,0.6-0.2
			C250.7,69.5,250.8,69.2,250.9,69L250.9,69z M251,67.4c0-0.4-0.1-0.8-0.3-1c-0.2-0.2-0.5-0.3-0.8-0.3c-0.3,0-0.6,0.1-0.8,0.4
			c-0.2,0.2-0.3,0.6-0.3,1H251L251,67.4z M258,66.8l-1.4-0.3c0.2-0.6,0.4-1,0.8-1.2c0.4-0.3,0.9-0.4,1.7-0.4c0.7,0,1.2,0.1,1.5,0.2
			c0.3,0.2,0.6,0.4,0.7,0.6c0.1,0.2,0.2,0.7,0.2,1.4l0,1.8c0,0.5,0,0.9,0.1,1.1c0,0.2,0.1,0.5,0.3,0.8h-1.5c0-0.1-0.1-0.3-0.1-0.5
			c0-0.1,0-0.2-0.1-0.2c-0.3,0.3-0.5,0.4-0.8,0.6c-0.3,0.1-0.6,0.2-1,0.2c-0.6,0-1.1-0.2-1.4-0.5c-0.3-0.3-0.5-0.7-0.5-1.2
			c0-0.3,0.1-0.6,0.2-0.9c0.2-0.3,0.4-0.5,0.7-0.6c0.3-0.1,0.7-0.3,1.2-0.4c0.7-0.1,1.2-0.3,1.5-0.4v-0.2c0-0.3-0.1-0.5-0.2-0.6
			c-0.1-0.1-0.4-0.2-0.8-0.2c-0.3,0-0.5,0.1-0.6,0.2C258.2,66.3,258.1,66.5,258,66.8L258,66.8z M260,68c-0.2,0.1-0.5,0.1-0.9,0.2
			c-0.4,0.1-0.7,0.2-0.8,0.3c-0.2,0.1-0.3,0.3-0.3,0.5c0,0.2,0.1,0.4,0.2,0.6c0.2,0.2,0.4,0.2,0.6,0.2c0.3,0,0.5-0.1,0.8-0.3
			c0.2-0.1,0.3-0.3,0.4-0.5c0-0.1,0.1-0.4,0.1-0.7V68L260,68z M268.3,70.8h-1.5v-2.9c0-0.6,0-1-0.1-1.2c-0.1-0.2-0.2-0.3-0.3-0.4
			c-0.1-0.1-0.3-0.2-0.5-0.2c-0.3,0-0.5,0.1-0.7,0.2c-0.2,0.1-0.4,0.3-0.4,0.6c-0.1,0.2-0.1,0.7-0.1,1.3v2.6H263V65h1.4v0.8
			c0.5-0.7,1.1-1,1.9-1c0.3,0,0.6,0.1,0.9,0.2c0.3,0.1,0.5,0.3,0.6,0.5c0.1,0.2,0.2,0.4,0.3,0.6c0.1,0.2,0.1,0.6,0.1,1V70.8
			L268.3,70.8z M275.1,70.8h-1.4v-0.8c-0.2,0.3-0.5,0.6-0.8,0.7c-0.3,0.2-0.6,0.2-1,0.2c-0.7,0-1.2-0.3-1.7-0.8
			c-0.5-0.5-0.7-1.3-0.7-2.2c0-1,0.2-1.7,0.7-2.2c0.5-0.5,1-0.8,1.7-0.8c0.6,0,1.2,0.3,1.7,0.8v-2.9h1.5V70.8L275.1,70.8z M271,67.8
			c0,0.6,0.1,1.1,0.3,1.3c0.2,0.4,0.6,0.6,1,0.6c0.4,0,0.7-0.2,0.9-0.4c0.2-0.3,0.4-0.7,0.4-1.3c0-0.7-0.1-1.1-0.4-1.4
			c-0.2-0.3-0.5-0.4-0.9-0.4c-0.4,0-0.7,0.1-0.9,0.4C271.2,66.8,271,67.2,271,67.8L271,67.8z M279.7,70.8v-8h5.9v1.3h-4.3v1.8h4v1.3
			h-4v2.2h4.5v1.3H279.7L279.7,70.8z M292.2,66.7l-1.5,0.3c-0.1-0.3-0.2-0.5-0.3-0.7c-0.2-0.2-0.4-0.2-0.7-0.2
			c-0.4,0-0.7,0.1-0.9,0.4c-0.2,0.3-0.3,0.7-0.3,1.3c0,0.7,0.1,1.2,0.3,1.5c0.2,0.3,0.5,0.4,0.9,0.4c0.3,0,0.5-0.1,0.7-0.2
			c0.2-0.2,0.3-0.4,0.4-0.8l1.5,0.3c-0.2,0.7-0.5,1.2-0.9,1.6c-0.4,0.4-1,0.5-1.8,0.5c-0.8,0-1.5-0.3-2-0.8
			c-0.5-0.5-0.8-1.3-0.8-2.2c0-1,0.3-1.7,0.8-2.2c0.5-0.5,1.2-0.8,2-0.8c0.7,0,1.3,0.2,1.7,0.5C291.7,65.7,292,66.1,292.2,66.7
			L292.2,66.7z M293,67.8c0-0.5,0.1-1,0.4-1.5c0.3-0.5,0.6-0.8,1.1-1.1c0.5-0.3,1-0.4,1.5-0.4c0.9,0,1.6,0.3,2.1,0.9
			c0.6,0.6,0.8,1.3,0.8,2.1c0,0.9-0.3,1.6-0.8,2.2c-0.6,0.6-1.3,0.9-2.1,0.9c-0.5,0-1-0.1-1.5-0.4c-0.5-0.2-0.8-0.6-1.1-1.1
			C293.1,69.1,293,68.5,293,67.8L293,67.8z M294.5,67.9c0,0.6,0.1,1,0.4,1.3c0.3,0.3,0.6,0.5,1,0.5c0.4,0,0.7-0.2,1-0.5
			c0.3-0.3,0.4-0.7,0.4-1.3c0-0.6-0.1-1-0.4-1.3c-0.3-0.3-0.6-0.5-1-0.5c-0.4,0-0.7,0.2-1,0.5C294.7,66.9,294.5,67.3,294.5,67.9
			L294.5,67.9z M305.4,70.8h-1.5v-2.9c0-0.6,0-1-0.1-1.2c-0.1-0.2-0.2-0.3-0.3-0.4c-0.1-0.1-0.3-0.2-0.5-0.2c-0.3,0-0.5,0.1-0.7,0.2
			c-0.2,0.1-0.4,0.3-0.4,0.6c-0.1,0.2-0.1,0.7-0.1,1.3v2.6h-1.5V65h1.4v0.8c0.5-0.7,1.1-1,1.9-1c0.3,0,0.6,0.1,0.9,0.2
			c0.3,0.1,0.5,0.3,0.6,0.5c0.1,0.2,0.2,0.4,0.3,0.6c0.1,0.2,0.1,0.6,0.1,1V70.8L305.4,70.8z M306.6,67.8c0-0.5,0.1-1,0.4-1.5
			c0.3-0.5,0.6-0.8,1.1-1.1c0.5-0.3,1-0.4,1.5-0.4c0.9,0,1.6,0.3,2.1,0.9c0.6,0.6,0.8,1.3,0.8,2.1c0,0.9-0.3,1.6-0.8,2.2
			c-0.6,0.6-1.3,0.9-2.1,0.9c-0.5,0-1-0.1-1.5-0.4c-0.5-0.2-0.8-0.6-1.1-1.1C306.7,69.1,306.6,68.5,306.6,67.8L306.6,67.8z
			 M308.1,67.9c0,0.6,0.1,1,0.4,1.3c0.3,0.3,0.6,0.5,1,0.5c0.4,0,0.7-0.2,1-0.5c0.3-0.3,0.4-0.7,0.4-1.3c0-0.6-0.1-1-0.4-1.3
			c-0.3-0.3-0.6-0.5-1-0.5c-0.4,0-0.7,0.2-1,0.5C308.3,66.9,308.1,67.3,308.1,67.9L308.1,67.9z M313.6,65h1.4v0.8
			c0.5-0.6,1.1-0.9,1.8-0.9c0.4,0,0.7,0.1,1,0.2c0.3,0.2,0.5,0.4,0.7,0.7c0.3-0.3,0.5-0.5,0.8-0.7c0.3-0.2,0.6-0.2,0.9-0.2
			c0.4,0,0.8,0.1,1.1,0.3c0.3,0.2,0.5,0.4,0.7,0.8c0.1,0.2,0.2,0.6,0.2,1.2v3.7h-1.5v-3.3c0-0.6-0.1-0.9-0.2-1.1
			c-0.1-0.2-0.4-0.3-0.7-0.3c-0.2,0-0.4,0.1-0.6,0.2c-0.2,0.1-0.3,0.3-0.4,0.6c-0.1,0.3-0.1,0.6-0.1,1.2v2.8h-1.5v-3.2
			c0-0.6,0-0.9-0.1-1.1c-0.1-0.2-0.1-0.3-0.3-0.4c-0.1-0.1-0.3-0.1-0.5-0.1c-0.2,0-0.4,0.1-0.6,0.2c-0.2,0.1-0.3,0.3-0.4,0.5
			c-0.1,0.2-0.1,0.6-0.1,1.2v2.8h-1.5V65L313.6,65z M323.6,64.2v-1.4h1.5v1.4H323.6L323.6,64.2z M323.6,70.8V65h1.5v5.8H323.6z"/>
		<path class="st0" d="M331.8,66.7l-1.5,0.3c-0.1-0.3-0.2-0.5-0.3-0.7c-0.2-0.2-0.4-0.2-0.7-0.2c-0.4,0-0.7,0.1-0.9,0.4
			c-0.2,0.3-0.3,0.7-0.3,1.3c0,0.7,0.1,1.2,0.3,1.5c0.2,0.3,0.5,0.4,0.9,0.4c0.3,0,0.5-0.1,0.7-0.2c0.2-0.2,0.3-0.4,0.4-0.8l1.5,0.3
			c-0.2,0.7-0.5,1.2-0.9,1.6c-0.4,0.4-1,0.5-1.8,0.5c-0.8,0-1.5-0.3-2-0.8c-0.5-0.5-0.8-1.3-0.8-2.2c0-1,0.3-1.7,0.8-2.2
			c0.5-0.5,1.2-0.8,2-0.8c0.7,0,1.3,0.2,1.7,0.5C331.3,65.7,331.6,66.1,331.8,66.7L331.8,66.7z M332.4,69.1l1.5-0.2
			c0.1,0.3,0.2,0.5,0.4,0.7c0.2,0.2,0.5,0.2,0.8,0.2c0.4,0,0.7-0.1,0.9-0.2c0.1-0.1,0.2-0.2,0.2-0.4c0-0.1,0-0.2-0.1-0.3
			c-0.1-0.1-0.2-0.1-0.5-0.2c-1.2-0.3-2-0.5-2.3-0.7c-0.5-0.3-0.7-0.7-0.7-1.3c0-0.5,0.2-0.9,0.6-1.3c0.4-0.3,1-0.5,1.8-0.5
			c0.8,0,1.4,0.1,1.8,0.4c0.4,0.3,0.6,0.6,0.8,1.1l-1.4,0.3c-0.1-0.2-0.2-0.4-0.4-0.5c-0.2-0.1-0.4-0.2-0.7-0.2
			c-0.4,0-0.7,0.1-0.9,0.2c-0.1,0.1-0.2,0.2-0.2,0.3c0,0.1,0.1,0.2,0.2,0.3c0.1,0.1,0.6,0.2,1.4,0.4c0.8,0.2,1.4,0.4,1.7,0.7
			c0.3,0.3,0.5,0.7,0.5,1.1c0,0.5-0.2,1-0.7,1.4c-0.4,0.4-1.1,0.6-2,0.6c-0.8,0-1.4-0.2-1.9-0.5C332.8,70.1,332.5,69.7,332.4,69.1z"
			/>
	</g>
	<path class="st0" d="M47.9,71.3c0,0,0-0.1,0-0.1l0,0l0,0c0.4,0,0.5-0.2,0.6-0.4c0-0.1,0-0.2,0-0.3c0-0.2,0-0.4,0.2-0.5l0.2-0.1h0
		l0,0c0.1-0.1,0.4,0,0.7,0c0.3,0.1,0.5,0.2,0.6,0.3h0l0,0l0,0c0,0.1,0,0.2-0.1,0.3l0,0c0,0,0,0,0,0.1l0,0l0,0l0,0l0,0l-0.7,0
		c-0.1,0.1-0.2,0.3-0.2,0.4c0,0.2,0.1,0.4,0.1,0.6l0,0c0.1,0.4,0.3,0.5,0.5,0.6c0.1,0.1,0.3,0.2,0.4,0.4c0,0.1,0,0.3,0,0.5
		c0,0.2-0.1,0.4,0,0.6h0l0,0l0,0c0.1,0.3,0.4,0.2,0.6,0.1c0.3-0.1,0.5-0.2,0.6,0.1c0.2,0.4-0.2,0.6-0.5,0.8c-0.1,0-0.1,0.1-0.2,0.1
		l0,0c-0.1,0.1-0.2,0.1-0.3,0.2c-0.3,0.2-0.5,0.4-0.9,0.5l0,0l0,0l-0.3-0.1l0,0l0,0c0-0.4,0.1-0.5,0.2-0.7c0.1-0.1,0.2-0.2,0.1-0.5
		h0l0-0.1c-0.1-0.2-0.2-0.3-0.3-0.4c-0.1-0.1-0.2-0.1-0.2-0.3c0-0.1,0-0.2,0.1-0.3c0.1-0.2,0.2-0.4,0.2-0.6
		c-0.1-0.1-0.3-0.2-0.5-0.2c-0.3-0.1-0.6-0.1-0.7-0.6C47.9,71.6,47.9,71.5,47.9,71.3L47.9,71.3z M48.5,71.7L48.5,71.7L48.5,71.7
		L48.5,71.7c0,0.1,0.1,0.1,0.1,0.1c0,0,0.1,0,0.1,0l0,0l0,0l0.1,0l0,0v0c0,0,0.1,0,0.1-0.1s0-0.1,0-0.1h0v0l0,0l0,0
		c0,0-0.1-0.1-0.1-0.1c0,0-0.1,0-0.1,0h0l0,0l0,0v0c0,0-0.1,0.1-0.1,0.1C48.5,71.6,48.5,71.6,48.5,71.7L48.5,71.7L48.5,71.7
		L48.5,71.7z M46.7,70.7c-0.1,0.2-0.2,0.4-0.3,0.8c0.1,0,0.1,0,0.2,0c0.1,0,0.3,0,0.3,0.1l0.1,0.2c0,0.1,0,0.2,0,0.3
		c0,0.1,0,0.2,0,0.3c0,0.1,0.1,0.2,0.2,0.2c0.1,0,0.1,0.1,0.1,0.1l0,0.1c0.1,0.2,0,0.9-0.1,1.1l0,0l0,0l0.3-0.3l0-0.1l0,0.1l0,0v0
		c0.1,0.2,0.1,0.6,0.1,1.1c0,0.4-0.1,0.9-0.2,0.9l0,0l0,0c-0.2,0.1-0.3,0-0.4-0.1c-0.1-0.1-0.2-0.3-0.2-0.4
		c-0.2-0.5-0.1-0.9-0.1-1.3c0-0.2,0.1-0.4,0-0.5h0v0L47,73.2c0,0,0-0.1-0.1-0.1c-0.1-0.1-0.2-0.1-0.2-0.2l0,0l0,0
		c-0.1-0.1-0.1-0.2-0.1-0.2c0-0.1,0-0.1-0.1-0.2c0,0,0,0-0.1,0c0,0,0,0-0.1,0h0c0,0-0.1,0.1-0.1,0.3c0,0.2-0.1,0.5-0.3,0.6
		c-0.1,0-0.1,0-0.2,0c0,0,0,0-0.1,0l0,0l0,0l-0.2-0.5c-0.1-0.2,0.1-0.4,0.2-0.6c0-0.1,0.1-0.1,0.1-0.2v0v0h0
		c0.1-0.3,0.2-0.4,0.2-0.7l0-0.1c0-0.1,0.1-0.3,0.1-0.4c0-0.1,0-0.3,0-0.4c0-0.1,0-0.5,0-0.7c0,0,0-0.1,0-0.1c0,0,0-0.1,0-0.1l0,0
		l0,0l0,0l0,0c0.1,0,0.1,0,0.1-0.1l0,0c0,0,0,0,0.1-0.1l0,0c0.1,0,0.1,0,0.2,0c0,0,0.1,0,0.1,0c0,0,0.1,0,0.1,0
		c0.1,0.1,0.2,0.2,0.3,0.2c0,0.1,0,0.1,0,0.2c0,0,0,0.1,0,0.1c0,0.1,0,0.1,0,0.2l0,0c0,0.1-0.1,0.2-0.1,0.2
		C46.8,70.5,46.8,70.6,46.7,70.7L46.7,70.7L46.7,70.7z M48.2,70L48.2,70c0.1,0,0.2-0.1,0.3-0.2c0.1-0.1,0.2-0.2,0.3-0.2
		c0.2-0.1,0.3-0.1,0.3-0.2c0.1-0.1,0.2-0.1,0.4-0.3l0,0l0,0c-0.1-0.1-0.3-0.2-0.5-0.2c-0.2,0-0.4,0.1-0.6,0.2l0,0l0,0l0,0
		c0,0-0.1,0-0.1,0.1c0,0-0.1,0.1-0.1,0.1C48.2,69.5,48.1,69.8,48.2,70L48.2,70L48.2,70L48.2,70z"/>
	<path class="st0" d="M31.8,71.4C31.8,71.4,31.8,71.4,31.8,71.4L31.8,71.4L31.8,71.4l0.3-0.1l0,0l0,0c0,0,0,0,0,0
		c0.1,0.1,0.2,0.1,0.1,0.3l0,0.1v0l0,0c0,0.1-0.1,0.1-0.1,0.1h0c-0.1,0-0.1,0-0.2,0v0h0l0,0l0,0c-0.1,0-0.1-0.1-0.2-0.2
		C31.7,71.7,31.7,71.6,31.8,71.4L31.8,71.4L31.8,71.4C31.7,71.4,31.7,71.4,31.8,71.4L31.8,71.4z M35.6,71.2c0-0.1,0.2-0.3,0.4-0.6
		c0.2-0.3,0.4-0.6,0.5-0.8c0-0.2,0-0.3-0.1-0.4c0-0.1-0.1-0.1-0.1-0.2l0,0l0,0l-0.3,0.1l0,0l0,0c-0.3,1.1-0.4,1.4-0.7,1.9
		c-0.1,0.1-0.1,0.3-0.2,0.4c-0.2,0.3-0.5,0.4-0.8,0.4c-0.3,0.1-0.7,0.1-1,0.4l0,0l0,0l0,0.2l0,0l0,0c0,0,0,0,0,0c0.2,0,0.4,0,0.6,0
		c0.1,0,0.2,0,0.3,0c0,0,0,0,0.1,0h0c0,0,0,0,0.1,0c0,0,0,0,0,0.1c0,0,0,0.1,0,0.1c0,0-0.4,0.3-0.7,0.5c-0.4,0.3-0.8,0.5-0.9,0.5h0
		v0l0,0v0c-0.1,0-0.1-0.3,0-0.6c0-0.3,0.1-0.7,0.1-0.8h0l0,0l0,0l0,0c0.1-0.3,0.2-0.7,0.4-1c0.1-0.2,0.2-0.4,0.3-0.6
		c0.1-0.4,0.4-0.5,0.7-0.7c0.2-0.1,0.3-0.1,0.3-0.3c0.1-0.2,0-0.5-0.1-0.6c-0.1-0.1-0.1-0.2-0.2-0.2c-0.1-0.1-0.2-0.1-0.3-0.1v0
		c-0.2-0.1-0.5,0-0.7,0.2c-0.2,0.1-0.4,0.3-0.5,0.5c-0.2,0.3-0.5,0.5-0.9,0.6l0,0c0-0.1-0.1-0.1,0-0.2l0.1-0.4l0-0.1l-0.1,0l0,0h0
		c-0.1,0-0.1,0.1-0.2,0.1c-0.1,0-0.1,0.1-0.2,0.1c-0.2,0.3-0.4,0.7-0.5,1.1l-0.2,0.6c0,0.2-0.1,0.3-0.1,0.5c0,0.1,0,0.3,0,0.4
		c0.1,0.4,0.2,0.4,0.4,0.4c0.1,0,0.1,0,0.2,0c0,0,0,0,0.1,0l0,0c0,0,0,0,0.1,0l0,0.1c-0.2,0.3-0.6,0.5-1,0.8
		c-0.6,0.4-1.2,0.7-1.3,1.2l0,0l0,0l0.1,0.1l0,0l0,0c0.4-0.3,0.7-0.5,1-0.7c0.1-0.1,0.2-0.1,0.3-0.2l0,0c0.2-0.1,0.5-0.3,0.7-0.1
		c0.1,0.1,0.1,0.1,0.2,0.2c0,0,0,0.1,0.1,0.1c0.1,0.1,0.1,0.2,0.2,0.2c0,0,0.1,0,0.1,0.1l0,0l0,0c0.2-0.1,0.3-0.1,0.3-0.2
		c0,0,0.1-0.1,0.2-0.1l0,0l0,0c0.1,0,0.2-0.1,0.3-0.1c0.1,0,0.2,0,0.3-0.1c0.3-0.1,0.4-0.2,0.6-0.3c0.1-0.1,0.2-0.2,0.4-0.2
		c0,0.2-0.1,0.6-0.3,1c-0.1,0.3-0.2,0.5-0.2,0.7l-0.1,0.5l0,0l0,0l-0.1,0.5l0,0l0,0c0,0,0,0,0,0c0,0,0,0.1,0.1,0.1v0
		c0.4,0.1,0.7-0.6,0.9-1.4c0.1-0.4,0.2-0.8,0.2-1.2c0-0.3,0.1-0.5,0.1-0.6h0l0-0.2h0c0.1-0.2,0.1-0.3,0.3-0.3c0,0,0,0,0.1,0
		c0.2-0.1,0.2-0.2,0.2-0.3c0,0,0-0.1,0-0.2c0.1-0.2,0.3-0.2,0.4-0.2c0.2,0,0.4,0,0.5-0.3l0-0.2c0-0.1,0-0.2-0.1-0.3
		c-0.1-0.1-0.2-0.1-0.3-0.1c0,0,0-0.1-0.1-0.1C35.7,71.4,35.6,71.3,35.6,71.2L35.6,71.2L35.6,71.2L35.6,71.2z M32.4,70.4L32.4,70.4
		C32.4,70.4,32.4,70.4,32.4,70.4c0.1-0.1,0.1-0.1,0.1-0.2l0,0c0.2-0.1,0.4-0.3,0.6-0.3c0,0,0,0.1,0,0.1c-0.1,0.3-0.2,0.7-0.4,0.6
		l-0.1,0h0l0,0c-0.1,0-0.1,0-0.1-0.1C32.4,70.5,32.4,70.5,32.4,70.4L32.4,70.4L32.4,70.4L32.4,70.4L32.4,70.4L32.4,70.4L32.4,70.4z
		 M31.1,72L31.1,72L31.1,72L31.1,72L31.1,72c0,0.1,0,0.2,0,0.3c0,0.1,0.1,0.2,0.1,0.2v0h0c0.1,0,0.4-0.1,0.7-0.1c0,0,0.1,0,0.1-0.1
		c0,0,0.1,0,0.1,0l0,0l0,0l0,0c0.1-0.1,0.3-0.2,0.4-0.3c0.1-0.1,0.2-0.2,0.2-0.4l0-0.1c0,0,0-0.1,0-0.1c0,0,0,0,0-0.1l-0.3,0l0,0
		l0,0L32.1,71l0,0l0,0l0-0.2L32,70.7c-0.2,0.1-0.5,0.4-0.7,0.8c0,0.1-0.1,0.1-0.1,0.2C31.2,71.8,31.1,71.9,31.1,72L31.1,72z
		 M31.9,73.1c0-0.1,0.1-0.1,0.2-0.1l0,0h0v0c0,0,0.1,0,0.1,0.1c0,0,0,0.1,0,0.1l0,0l0,0h0l-0.1,0.3h0c0,0.1-0.1,0.2-0.1,0.3
		c-0.1,0-0.1,0.1-0.2,0.1c0,0,0,0,0,0c0,0,0,0,0-0.1l0,0l0.1-0.3h0C31.8,73.3,31.9,73.2,31.9,73.1z"/>
	<path class="st0" d="M9.2,53.5c0-0.1,0.1-0.1,0.3-0.2c0,0,0.1-0.1,0.1-0.2c0-0.1,0.1-0.2,0.1-0.2c0,0,0,0,0,0
		c-0.1-0.3-0.2-0.3-0.4-0.3l0,0c-0.1,0-0.1,0-0.2,0c-0.2,0-0.4,0-0.5,0l0,0l0,0c0,0,0,0-0.1,0l0,0c0,0,0,0-0.1,0c0,0,0,0.1,0,0.1
		c0,0,0,0,0,0.1l0,0h0c0,0.2,0.1,0.4,0.3,0.6v0c0.1,0.2,0.3,0.3,0.4,0.3v0h0C9.1,53.6,9.1,53.5,9.2,53.5L9.2,53.5z M13,52.7l0.2,0.1
		l0,0l0,0c0.1,0.4,0.1,0.7,0.1,1c-0.1,0.3-0.3,0.5-0.7,0.6c-0.4,0.1-0.7,0.1-1.1,0c-0.4,0-0.8-0.1-1.3,0.1l-0.4,0.1
		c-0.1,0-0.1,0-0.1,0c0,0,0,0,0,0l0,0.1c0.1,0.2,0.2,0.4,0.4,0.5c0.1,0.1,0.1,0.1,0.2,0.2l0,0c0.1,0.1,0.1,0.1,0.2,0.2
		c0.1,0.2,0.2,0.3,0.5,0.4l0.8-0.4l0,0l0,0l0,0c0.1,0,0.1,0,0.1,0c0,0,0.1,0.1,0.1,0.1l0,0v0v0c0,0.1-0.3,0.5-0.6,0.8
		c-0.3,0.3-0.7,0.6-0.9,0.7l0,0l0,0h0v0c-0.1,0-0.3,0-0.5-0.1c-0.2-0.1-0.3-0.2-0.3-0.3v0l0,0l0,0c-0.1-0.3,0.1-0.4,0.3-0.5
		c0.1-0.1,0.3-0.1,0.2-0.3c0-0.1-0.3-0.3-0.5-0.4c0,0-0.1,0-0.1-0.1l0,0c-0.2-0.1-0.3-0.3-0.4-0.5c0-0.1-0.1-0.1-0.1-0.2L9,55.1
		c-0.2-0.4-0.5-1-0.7-1.3l0,0l0,0l0,0c-0.3-0.3-0.4-0.4-0.6-0.6l0,0c-0.1-0.1-0.3-0.2-0.4-0.4C7.1,52.7,7,52.6,7,52.5
		c0-0.1,0-0.2,0-0.3C7,52.1,7.1,52,7.1,52c0.1-0.2,0.4-0.3,0.6-0.3l0,0c0.4-0.1,1,0,1.5,0.1c0.2,0.1,0.4,0.2,0.5,0.3
		c0.1,0.1,0.2,0.3,0.2,0.4c0,0.1-0.1,0.3-0.2,0.4c0,0-0.1,0.1-0.1,0.2c-0.1,0.1-0.1,0.2-0.2,0.3l0.1,0.2l1.5-0.3l0.9-0.2L13,52.7
		L13,52.7L13,52.7z"/>
	<path class="st0" d="M60.2,64.3c0,0.3,0,0.6,0.1,0.8l0.1,0.1l0,0l0,0c0.1,0.1,0.2,0.1,0.3,0.1s0.2,0,0.3-0.1l0,0l0,0
		c0,0,0.1-0.1,0.1-0.1c0.1-0.1,0.1-0.1,0.2-0.2c0.2-0.1,0.3-0.2,0.5,0l0,0c0.2,0.3-0.1,0.6-0.4,0.9c-0.1,0.1-0.1,0.1-0.2,0.2l0,0
		c-0.2,0.2-0.2,0.5-0.1,0.8c0,0.1,0,0.1,0.1,0.1c0,0,0,0.1,0.1,0.1h0l0,0l0.2,0.3c0.2,0.2,0.8,0.2,1.2,0.2c0.1,0,0.2,0,0.2,0l0,0
		c0.1,0,0.1,0,0.2,0h0h0l0,0c0.1,0,0.2-0.1,0.4-0.1c0.2,0,0.3-0.1,0.5-0.2c0,0,0.1,0,0.1,0c0.3-0.1,0.6-0.2,0.8-0.1l0.1,0l0,0
		c-0.1,0.1-0.1,0.2-0.2,0.3c-0.1,0.2-0.2,0.4-0.4,0.6l-0.1,0.1c-0.3,0.3-1,0.2-1.5,0c-0.4-0.1-0.8-0.2-0.9,0v0v0
		c-0.1,0.1,0,0.2,0,0.5c0.1,0.5,0.3,1.2-0.3,1.8l-0.4,0.4C61,70.6,61,70.6,61,70.6c0,0,0,0-0.1,0l0,0l0,0l-0.1-0.1l0,0l0,0
		c0-0.1,0.1-0.2,0.2-0.3c0.1-0.1,0.2-0.3,0.3-0.4l0,0l0,0l0,0c0.1-0.2,0.1-0.4,0.2-0.7l0-0.1c0-0.3-0.1-0.8-0.3-1.2
		c0-0.1-0.1-0.1-0.1-0.2c0,0-0.1-0.1-0.1-0.1c-0.3,0.3-0.6,0.5-0.9,0.1c0,0,0-0.1-0.1-0.1l0,0c0,0,0,0-0.1-0.1l0,0l0,0
		c0.4-0.3,0.5-0.6,0.6-0.9c0-0.3-0.1-0.6-0.2-0.9c0,0,0-0.1-0.1-0.1c-0.1-0.3-0.2-0.5-0.4-0.8c0-0.1-0.1-0.1-0.2-0.2
		c-0.2-0.3-0.5-0.6-0.4-0.8l0.1-0.1l0,0h0c0.1-0.1,0.3-0.1,0.5-0.1c0.2,0,0.4,0.1,0.5,0.2v0l0,0C60.2,63.7,60.2,64,60.2,64.3z"/>
	<path class="st0" d="M20.7,64.3c-0.3-0.1-0.5-0.2-0.6-0.1c-0.1,0.1,0,0.4,0.1,0.7c0.2,0.4,0.5,1,0,1.3L20,66.3
		c-0.2,0.2-0.6-0.1-1-0.3c-0.3-0.2-0.6-0.4-0.8-0.4c-0.2,0-0.3,0-0.4,0.3c0,0.2,0,0.6,0.1,1c0,0.1,0,0.1,0,0.2c0,0.1,0,0.1,0,0.2v0
		v0l0,0c0,0.1,0.1,0.2,0.1,0.4c0,0.1,0.1,0.2,0.2,0.4c0.1,0.2,0.2,0.3,0.3,0.4c0.1,0.1,0.1,0.1,0.2,0.3l0,0h0
		c0.1,0.1,0.1,0.2,0.1,0.2c0,0.1,0,0.2-0.1,0.2v0l0,0l0,0h0c-0.1,0.1-0.3,0-0.4-0.1c-0.1-0.1-0.3-0.3-0.4-0.4h0l0,0l-0.4-0.6
		c-0.1-0.2-0.1-0.8-0.1-1.3c0-0.2,0-0.5,0-0.6l-0.2-0.1c-0.3,0.2-0.8,0.5-1.2,0.7c-0.5,0.2-0.9,0.3-1.1,0c-0.1-0.2-0.1-0.2,0-0.3
		c0,0,0,0,0-0.1l0,0l0,0c0.2,0,0.4,0,0.5,0c0.1,0,0.3-0.1,0.5-0.2c0.2-0.1,0.4-0.2,0.6-0.3c0.2-0.1,0.3-0.2,0.3-0.3
		c-0.4-0.2-0.6-0.3-1-0.3l0,0c0,0-0.1,0-0.2,0l0,0c-0.1,0-0.3,0-0.5-0.1c-0.3,0-0.7-0.1-0.8-0.1h0l0,0l0,0l0,0l0-0.2l0,0l0,0
		c0.4-0.2,1.5,0,2.3,0.2c0.5,0.1,1,0.2,1.1,0.2v0h0l0,0c0.1,0,0.1-0.1,0.1-0.1c0,0,0-0.1,0.1-0.1c0.1,0,0.2,0,0.2,0c0,0,0,0,0.1,0
		l0,0v0c0.1,0,0.1-0.1,0.1-0.1v0c0,0,0-0.1,0-0.1l0,0l0,0l0,0c-0.1-0.1-0.3-0.1-0.5,0c-0.3,0-0.6,0.1-0.7-0.1l0-0.1l0,0h0
		c-0.1-0.1,0-0.3,0.1-0.4c0.1-0.1,0.2-0.3,0.3-0.3l0,0l0,0l0.2-0.1c0.1,0,0.5-0.1,1-0.1c0.4,0,0.7,0,0.7-0.1v0h0
		c0.1-0.1,0.2-0.2,0.2-0.3c0,0,0,0,0-0.1v0c0,0,0,0,0-0.1l0,0l0,0l0,0l0,0l0.2-0.2l0,0l0,0c0.2,0.2,0.8,0.6,1.2,0.7
		c0.1,0,0.2,0,0.2,0c0.1,0,0.1,0,0.1,0l0,0l0,0c0.1,0,0.1-0.2,0.2-0.3c0.1-0.1,0.1-0.2,0.2-0.3v0h0l0,0l0,0l0,0
		c0.1-0.1,0.2-0.1,0.3,0c0.1,0,0.2,0.1,0.3,0.2l0,0v0l0,0l0,0c0.1,0.2,0.1,0.4,0.1,0.6c-0.1,0.2-0.2,0.4-0.3,0.5l0,0h0
		c-0.1,0-0.1,0-0.1,0c0,0-0.1,0-0.2,0.1l-0.1,0.1c0,0-0.1,0.1-0.1,0.3c0,0.1-0.1,0.2-0.1,0.3v0h0C21.3,64.6,21,64.5,20.7,64.3
		L20.7,64.3z M18.4,63.4c-0.1,0-0.1,0-0.2,0.1c0,0,0,0,0,0h0c0,0,0,0,0,0.1l0,0l0,0c0,0.1,0.3,0.2,0.5,0.2c0.2,0.1,0.5,0.1,0.6,0v0
		l0,0l0,0l0,0c0.1,0,0.1-0.1,0.1-0.2c0-0.1,0-0.1,0-0.2l0,0l0,0c-0.2-0.3-0.6-0.3-1-0.2C18.6,63.4,18.5,63.4,18.4,63.4L18.4,63.4z
		 M19.7,65L19.7,65L19.7,65L19.7,65c-0.1-0.1-0.1-0.2-0.2-0.2c-0.1,0-0.1-0.1-0.2,0h0l0,0v0l-0.1,0.1l0.1,0.3l0,0l0,0L19,65.3
		c-0.1,0,0,0.1,0,0.1c0,0,0,0,0,0c0.1,0,0.3,0.1,0.5,0.1v0c0,0,0.1,0,0.1,0c0,0,0.1,0,0.1,0l0,0l0,0l0.1,0l0,0v0
		c0.1,0,0.1-0.1,0-0.2C19.7,65.1,19.7,65,19.7,65L19.7,65L19.7,65z"/>
	<path class="st0" d="M67.4,54.1L67.4,54.1L67.4,54.1l0.1,0.1l0,0v0c0,0,0.1,0,0.1,0c0,0,0.1,0,0.1-0.1h0l0,0l0,0
		c0.1-0.1-0.4-1-0.6-1.6c-0.1-0.1-0.1-0.2-0.1-0.3c0-0.1-0.1-0.1-0.1-0.1h0h0l0,0l0,0c0.1-0.1,0.4-0.3,0.6-0.3c0,0,0.1,0,0.1,0
		c0,0,0.1,0,0.1,0l0,0l0,0l0.1,0c0.1,0.1,0.1,0.4,0.2,0.7c0,0.4,0,0.9,0.4,1.2l0,0c0.2,0.1,0.3,0,0.5,0c0.1-0.1,0.2-0.1,0.4-0.1l0,0
		l0,0l0,0l0,0c0,0,0,0.1,0.1,0.1l0,0c0,0,0.1,0,0.1,0v0c0,0,0,0,0,0c0,0,0-0.1,0-0.1c0-0.1,0.1-0.3,0.2-0.4v0l0,0
		c0.2-0.3,0.3-0.3,0.4-0.4c0.1,0,0.1,0,0.2-0.1l0,0l0,0l0.3,0.2l0,0l0,0c-0.1,0.1-0.1,0.4-0.2,0.7c0,0.2-0.1,0.4-0.1,0.5v0l0,0
		c0,0-0.1,0.1-0.1,0l0,0c0,0,0,0-0.1,0l0,0l0,0c0-0.1,0-0.1,0-0.2c0-0.1,0-0.3-0.1-0.3l-0.1,0c0,0,0,0,0,0c0,0-0.1,0-0.2,0.1
		c-0.1,0.1-0.1,0.2-0.2,0.3c-0.1,0.3-0.2,0.6-0.2,0.7c0,0.1-0.1,0.3-0.1,0.4l0,0c-0.1,0.3-0.2,0.5-0.1,0.8c0,0,0,0,0,0l0-0.1l0,0
		l0.4-0.7l0,0c0-0.1,0.1-0.1,0.1-0.1c0,0,0,0,0.1,0l0,0l0,0l0.2,0.1l0,0l0,0c0,0.1,0,0.3,0,0.4l0,0c0,0,0,0,0,0.1c0,0,0,0,0,0v0l0,0
		c0.1,0.1,0.2,0.1,0.3,0.1c0.2,0,0.4,0,0.9,0.3l0,0l0,0l0.3-0.4l0.2-0.2c0.1-0.1,0.2-0.2,0.3-0.2c0.1,0,0.2,0,0.4,0l0,0l0,0
		c0.1,0.1,0.2,0.2,0.2,0.4c0,0,0,0.1,0,0.1c0,0,0,0.1,0,0.1v0l0,0l-0.2,0.3c0,0-0.1,0.1-0.2,0.1C72.2,56,72,56.1,72,56.2l0,0l0,0v0
		c-0.2,0.2,0.1,0.5,0.4,0.7c0.1,0.1,0.2,0.2,0.2,0.2l0,0l0,0c0.1,0.1,0.4,0.5,0.5,0.8c0,0.1,0,0.1,0,0.2c0,0.1,0,0.1,0,0.1v0l0,0
		l-0.5,0.7c-0.1,0.1-0.1,0.1-0.2,0.1v0c-0.1,0-0.1,0-0.2-0.1l0,0l0,0c0.3-0.4,0.4-0.7,0.3-1c-0.1-0.3-0.3-0.6-0.7-0.8l-0.2,0
		c0,0.2-0.2,0.6-0.3,0.9c0,0.1-0.1,0.1-0.1,0.2c0,0.1-0.1,0.1-0.1,0.2v0l0,0l0,0c0,0.1-0.1,0.1-0.1,0.1c0,0,0,0-0.1,0l0,0l0-0.1
		c0,0,0-0.1-0.1-0.1c0-0.1-0.1-0.1-0.1-0.1c0-0.1,0-0.1,0.1-0.2l0,0l0-0.1c0-0.1,0.1-0.2,0.1-0.2c0-0.1,0-0.2,0.1-0.3
		c0.1-0.1,0.2-0.5,0.2-0.8c0,0,0-0.1,0-0.1c0,0,0,0,0-0.1l0,0l0,0l0,0c-0.1-0.1-0.3-0.1-0.4,0c-0.1,0-0.2,0-0.3,0v0h0h0
		c-0.1,0-0.2-0.1-0.3-0.1c-0.1-0.1-0.3-0.2-0.3-0.1c0,0.1-0.1,0.1-0.1,0.2c0,0.1,0,0.2-0.1,0.4c0,0.1-0.1,0.1-0.1,0.1c0,0,0,0-0.1,0
		l0,0l0,0c0,0,0,0,0-0.1c0,0,0,0-0.1-0.1l-0.1,0l0,0l0,0c0,0,0,0-0.1,0l0,0c0,0,0,0,0,0h0l0,0c-0.1,0.1-0.1,0.7-0.1,1.1
		c0,0.1,0,0.2,0,0.2l0,0v0c0,0.1,0,0.2,0,0.3c0,0.1,0,0.2,0,0.3l0,0v0v0c0,0.2,0,0.3-0.1,0.4c0,0.1,0,0.2-0.1,0.3l0,0l0,0l-0.3,0.1
		l0,0l0,0c-0.3-0.3-0.2-0.5-0.1-0.8c0.1-0.1,0.1-0.3,0.1-0.5c0-0.2,0.1-0.7,0-1c0-0.1,0-0.1,0-0.2c0,0,0-0.1,0-0.1v0l0,0l0,0
		c0,0,0,0-0.1,0c-0.2,0-0.5-0.1-0.9-0.3l0,0l0,0l0,0l-1.8-1.6l0,0l0,0c0,0,0,0,0-0.1c0-0.1,0-0.1,0-0.2l0,0l0,0h0
		c0.1-0.1,0.2-0.1,0.3-0.2c0.1,0,0.3-0.1,0.3,0h0l0,0c0.1,0.1,0.2,0.3,0.3,0.5c0.2,0.3,0.4,0.7,0.6,0.9l0,0l0,0l0.2,0.1
		c0.1,0.1,0.1,0,0.2,0c0,0,0,0,0,0l-0.1-0.2l0,0l0,0l0.1-0.2l0-0.1l0,0c0.2,0.1,0.2,0.3,0.3,0.4h0c0.1,0.1,0.1,0.2,0.3,0.3l0,0
		l0.1,0.1l0,0l0,0c0,0,0.1,0,0.1,0c0,0,0.1,0,0.1-0.1l0,0v0l0-0.1c0.1-0.1,0.1-0.3,0.1-0.4c0,0,0,0,0-0.1c0,0,0,0,0,0l0,0l0,0v0
		c-0.1-0.1-0.2-0.2-0.3-0.3c-0.1,0-0.2-0.1-0.2-0.1L68,55c-0.3-0.2-0.8-0.5-1.2-0.9c-0.4-0.4-0.8-0.8-0.6-1l0,0l0,0l0,0
		c0-0.1,0.1-0.1,0.2-0.1l0,0c0.1,0,0.1,0,0.2,0.1l0,0l0,0c0.2,0.1,0.3,0.3,0.5,0.5C67.1,53.8,67.3,54,67.4,54.1L67.4,54.1z
		 M68.5,54.2L68.5,54.2C68.5,54.2,68.5,54.2,68.5,54.2L68.5,54.2c-0.1,0.2-0.1,0.3,0,0.4l0,0l0.1,0c0,0,0,0,0.1,0l0,0c0,0,0,0,0,0
		l0,0v0c0,0,0-0.1,0-0.1C68.7,54.4,68.6,54.3,68.5,54.2L68.5,54.2L68.5,54.2L68.5,54.2C68.5,54.2,68.5,54.2,68.5,54.2z"/>
	<g>
		<path class="st0" d="M40,0c22,0,40,18,40,40c0,22-18,40-40,40c-22,0-40-18-40-40C0,18,17.9,0,40,0L40,0z M40,1.3
			C18.7,1.3,1.3,18.7,1.3,40c0,21.3,17.3,38.6,38.6,38.6c21.3,0,38.6-17.4,38.6-38.6C78.6,18.7,61.2,1.3,40,1.3z"/>
		<path class="st0" d="M36.1,18.7v14.1c-1.7,4.4-5,5.6-6.2,6V28.5l-6.8,0l0,15.5c0,0-0.6,9.2-5.3,12.5c-3.5-4.6-5.5-10.3-5.5-16.5
			c0-15.2,12.4-27.6,27.6-27.6c15.2,0,27.6,12.4,27.6,27.6c0,6.2-2.1,11.9-5.5,16.5C57.3,53.1,56.7,44,56.7,44l0-15.5l-6.8,0v10.3
			c-1.2-0.3-4.5-1.6-6.2-6V18.7H36.1L36.1,18.7z M23.5,62.1c4.6,3.4,10.3,5.5,16.5,5.5c6.2,0,11.9-2,16.5-5.5l0,0l0,0l0.2-0.1
			c-1.9-1.7-7.5-7.6-7.5-16.7c-1.2,0.1-2.9-0.2-5-1.5c-2.3-1.4-3.5-3.5-4.1-5.6c-0.6,2-1.8,4.2-4.1,5.6c-2.1,1.3-3.8,1.6-5,1.5
			c0,9.1-5.6,15-7.5,16.7L23.5,62.1L23.5,62.1L23.5,62.1z"/>
	</g>
	<path class="st0" d="M73.4,47c0.5,0,1-0.4,1-1c0-0.5-0.4-1-1-1c-0.5,0-1,0.4-1,1C72.4,46.6,72.8,47,73.4,47z"/>
	<path class="st0" d="M7.1,47c0.5,0,1-0.4,1-1c0-0.5-0.4-1-1-1c-0.5,0-1,0.4-1,1C6.1,46.6,6.5,47,7.1,47z"/>
	<g>
		<path class="st0" d="M6.9,39.3l0-0.7c0.2,0,0.4-0.1,0.5-0.2c0.1-0.1,0.2-0.3,0.2-0.5c0-0.2,0-0.4-0.1-0.5
			c-0.1-0.1-0.2-0.2-0.3-0.2c-0.1,0-0.1,0-0.2,0.1c-0.1,0-0.1,0.1-0.2,0.2c0,0.1-0.1,0.2-0.2,0.5c-0.1,0.3-0.2,0.6-0.4,0.7
			C6.1,39,5.8,39.1,5.6,39c-0.2,0-0.3-0.1-0.5-0.2c-0.1-0.1-0.2-0.3-0.3-0.4c-0.1-0.2-0.1-0.4-0.1-0.7c0-0.4,0.2-0.7,0.4-0.9
			c0.2-0.2,0.4-0.3,0.8-0.3l0,0.7c-0.2,0-0.3,0.1-0.4,0.2c-0.1,0.1-0.1,0.2-0.1,0.4c0,0.2,0,0.3,0.1,0.5c0,0.1,0.1,0.1,0.2,0.1
			c0.1,0,0.1,0,0.2-0.1C5.9,38.2,6,38,6.1,37.7c0.1-0.3,0.2-0.5,0.3-0.7c0.1-0.1,0.2-0.3,0.4-0.3c0.1-0.1,0.3-0.1,0.5-0.1
			c0.2,0,0.4,0.1,0.5,0.2c0.2,0.1,0.3,0.3,0.3,0.5c0.1,0.2,0.1,0.4,0.1,0.7c0,0.4-0.2,0.7-0.4,0.9C7.6,39.2,7.3,39.3,6.9,39.3
			L6.9,39.3z M5.1,35.2l1.2,0.2C6,35.2,6,34.9,6,34.6c0-0.1,0.1-0.3,0.1-0.4c0.1-0.1,0.2-0.2,0.2-0.2c0.1,0,0.2-0.1,0.3-0.1
			c0.1,0,0.3,0,0.5,0l1.4,0.2l-0.1,0.6l-1.2-0.2c-0.2,0-0.4,0-0.5,0c-0.1,0-0.1,0-0.2,0.1c0,0.1-0.1,0.1-0.1,0.2c0,0.1,0,0.2,0,0.3
			c0,0.1,0.1,0.2,0.2,0.2c0.1,0.1,0.2,0.1,0.4,0.1l1.2,0.2l-0.1,0.6L5,35.9L5.1,35.2L5.1,35.2z M7.1,32.9l-0.2,0.5
			c-0.2-0.1-0.3-0.3-0.4-0.4c-0.1-0.2-0.1-0.4,0-0.7c0.1-0.3,0.2-0.5,0.2-0.6c0.1-0.1,0.2-0.2,0.3-0.2c0.1,0,0.3,0,0.6,0.1l0.7,0.2
			c0.2,0.1,0.4,0.1,0.5,0.1c0.1,0,0.2,0,0.3,0L9,32.3c0,0-0.1,0-0.2,0c0,0-0.1,0-0.1,0c0.1,0.1,0.1,0.3,0.1,0.4c0,0.1,0,0.3,0,0.4
			c-0.1,0.2-0.2,0.4-0.3,0.5c-0.2,0.1-0.3,0.1-0.5,0.1c-0.1,0-0.2-0.1-0.3-0.2c-0.1-0.1-0.1-0.2-0.2-0.3c0-0.1,0-0.3,0-0.5
			c0-0.3,0-0.5,0-0.6l-0.1,0c-0.1,0-0.2,0-0.3,0c-0.1,0-0.1,0.1-0.2,0.3c0,0.1,0,0.2,0,0.3C7,32.7,7,32.8,7.1,32.9L7.1,32.9z
			 M7.8,32.2c0,0.1,0,0.2,0,0.4c0,0.2,0,0.3,0,0.4C7.9,33,8,33.1,8,33.1c0.1,0,0.2,0,0.2,0c0.1,0,0.1-0.1,0.2-0.2c0-0.1,0-0.2,0-0.3
			c0-0.1-0.1-0.2-0.2-0.2c0,0-0.1-0.1-0.3-0.1L7.8,32.2L7.8,32.2z M9.8,29.4l-1.4-0.5c-0.2-0.1-0.3-0.1-0.4-0.1c-0.1,0-0.2,0-0.3,0
			c-0.1,0-0.2,0.1-0.3,0.2c-0.1,0.1-0.1,0.2-0.2,0.3c-0.1,0.3-0.1,0.6,0.1,0.9l-0.3-0.1l-0.2,0.6l2.3,0.8l0.2-0.6l-1-0.4
			c-0.3-0.1-0.4-0.2-0.5-0.2c-0.1-0.1-0.1-0.1-0.2-0.2c0-0.1,0-0.2,0-0.3c0-0.1,0.1-0.1,0.1-0.2c0.1,0,0.1-0.1,0.2-0.1
			c0.1,0,0.2,0,0.5,0.1L9.6,30L9.8,29.4L9.8,29.4z M10.8,26.9l-0.2,0.5l-0.3-0.1c0.1,0.1,0.1,0.3,0.2,0.4c0,0.1,0,0.3-0.1,0.4
			c-0.1,0.3-0.3,0.4-0.6,0.5c-0.3,0.1-0.6,0.1-1-0.1c-0.4-0.2-0.6-0.4-0.7-0.6c-0.1-0.3-0.1-0.5,0-0.8c0.1-0.2,0.3-0.4,0.6-0.5
			l-1.1-0.4l0.2-0.6L10.8,26.9L10.8,26.9z M9,28c0.2,0.1,0.4,0.1,0.6,0.1c0.2,0,0.3-0.1,0.4-0.3c0.1-0.1,0-0.3,0-0.4
			c-0.1-0.1-0.2-0.3-0.5-0.3C9.2,27,9,27,8.9,27c-0.1,0-0.3,0.1-0.3,0.3c-0.1,0.1,0,0.3,0,0.4C8.6,27.8,8.8,27.9,9,28L9,28z
			 M9.8,26.1c0.2,0.1,0.5,0.2,0.7,0.2c0.2,0,0.4-0.1,0.6-0.2c0.2-0.1,0.3-0.3,0.4-0.5c0.2-0.3,0.2-0.6,0.1-0.9
			c-0.1-0.3-0.3-0.6-0.6-0.7c-0.3-0.2-0.6-0.2-0.9-0.1c-0.3,0.1-0.6,0.3-0.7,0.6c-0.1,0.2-0.2,0.4-0.2,0.6c0,0.2,0.1,0.4,0.2,0.6
			C9.5,25.8,9.6,26,9.8,26.1L9.8,26.1z M10.2,25.5c-0.2-0.1-0.3-0.2-0.4-0.4c-0.1-0.2,0-0.3,0-0.5c0.1-0.1,0.2-0.2,0.4-0.3
			c0.2,0,0.3,0,0.6,0.1c0.2,0.1,0.3,0.2,0.4,0.4c0.1,0.2,0,0.3,0,0.5c-0.1,0.1-0.2,0.2-0.4,0.3C10.5,25.6,10.4,25.6,10.2,25.5
			L10.2,25.5z M13.4,22.3L13,22.9l-1-0.7c-0.2-0.1-0.4-0.2-0.4-0.2c-0.1,0-0.2,0-0.2,0c-0.1,0-0.1,0.1-0.2,0.1
			c-0.1,0.1-0.1,0.2-0.1,0.3c0,0.1,0,0.2,0.1,0.3c0.1,0.1,0.2,0.2,0.4,0.3l0.9,0.6l-0.3,0.5l-2-1.3l0.3-0.5l0.3,0.2
			c-0.1-0.3-0.1-0.6,0.1-0.9c0.1-0.1,0.2-0.2,0.3-0.3c0.1-0.1,0.2-0.1,0.3-0.1c0.1,0,0.2,0,0.3,0c0.1,0,0.2,0.1,0.4,0.2L13.4,22.3
			L13.4,22.3z M13.7,22.1C13.7,22.1,13.7,22.1,13.7,22.1c0.2,0.2,0.4,0.2,0.6,0.2c0.2-0.1,0.4-0.2,0.7-0.6c0.1-0.2,0.2-0.3,0.3-0.5
			c0-0.1,0.1-0.3,0-0.4c0-0.1-0.1-0.2-0.2-0.4c-0.1-0.1-0.2-0.3-0.5-0.4l-1.7-1.3l-0.3,0.5l0.3,0.2c-0.3,0-0.6,0.1-0.7,0.4
			c-0.2,0.2-0.2,0.5-0.2,0.8c0.1,0.3,0.2,0.5,0.6,0.8c0.3,0.2,0.5,0.3,0.8,0.3c0.3,0,0.6-0.1,0.8-0.4c0.2-0.2,0.2-0.5,0.1-0.8
			l0.3,0.2c0.1,0.1,0.2,0.1,0.2,0.2c0,0.1,0.1,0.1,0.1,0.2c0,0.1-0.1,0.2-0.2,0.3c-0.1,0.1-0.1,0.2-0.2,0.2c-0.1,0-0.1,0-0.2,0
			L13.7,22.1L13.7,22.1z M12.9,20.8c-0.2-0.1-0.3-0.3-0.3-0.4c0-0.1,0-0.3,0.1-0.4c0.1-0.1,0.2-0.2,0.4-0.2c0.2,0,0.3,0.1,0.5,0.2
			c0.2,0.1,0.3,0.3,0.3,0.4c0,0.2,0,0.3-0.1,0.4C13.7,21,13.6,21,13.4,21C13.3,21.1,13.1,21,12.9,20.8L12.9,20.8z M13.7,16.4
			l0.5-0.5l1.3,1.2c0.2,0.2,0.3,0.3,0.4,0.4c0.1,0.1,0.2,0.1,0.4,0.1c0.1,0,0.3-0.1,0.4-0.2c0.1-0.1,0.2-0.3,0.2-0.4
			c0-0.1,0-0.2-0.1-0.3c-0.1-0.1-0.2-0.2-0.4-0.4L15.1,15l0.5-0.5l1.2,1.2c0.3,0.3,0.5,0.5,0.6,0.6c0.1,0.1,0.1,0.3,0.2,0.4
			c0,0.1,0,0.3-0.1,0.5c-0.1,0.2-0.2,0.3-0.4,0.5c-0.2,0.2-0.4,0.4-0.6,0.4c-0.2,0.1-0.3,0.1-0.5,0.1c-0.1,0-0.3-0.1-0.4-0.1
			c-0.2-0.1-0.4-0.3-0.6-0.5L13.7,16.4L13.7,16.4z M19.9,15.1L19,14c-0.1-0.1-0.2-0.2-0.3-0.3c-0.1-0.1-0.2-0.1-0.3-0.1
			c-0.1,0-0.2,0-0.3,0c-0.1,0-0.2,0.1-0.3,0.2c-0.2,0.2-0.4,0.5-0.3,0.8l-0.2-0.3l-0.4,0.4l1.5,1.8l0.5-0.4l-0.7-0.8
			c-0.2-0.2-0.3-0.4-0.3-0.5c0-0.1,0-0.2,0-0.3c0-0.1,0.1-0.2,0.2-0.3c0.1-0.1,0.1-0.1,0.2-0.1c0.1,0,0.1,0,0.2,0.1
			c0.1,0,0.2,0.2,0.4,0.4l0.8,0.9L19.9,15.1L19.9,15.1z M18.6,12.7l-0.4-0.5l0.5-0.4l0.4,0.5L18.6,12.7L18.6,12.7z M20.3,14.9
			L18.8,13l0.5-0.4l1.5,1.9L20.3,14.9L20.3,14.9z M21.7,13.8l-2.2-1.4l0.5-0.4l1.1,0.7l0.3,0.3c0-0.1-0.1-0.2-0.1-0.2
			c0-0.1,0-0.1-0.1-0.2l-0.3-1.3l0.5-0.4l0.6,2.5L21.7,13.8L21.7,13.8z M23.9,11.5c0,0.1,0,0.2,0,0.3c0,0.1-0.1,0.1-0.2,0.2
			c-0.1,0.1-0.3,0.1-0.4,0c-0.1,0-0.3-0.1-0.3-0.3l1.4-0.8c-0.2-0.4-0.5-0.7-0.8-0.8c-0.3-0.1-0.6-0.1-0.9,0.1
			c-0.3,0.2-0.5,0.4-0.5,0.7c-0.1,0.3,0,0.6,0.2,1c0.2,0.3,0.4,0.5,0.6,0.6c0.3,0.1,0.6,0.1,1-0.1c0.2-0.1,0.4-0.3,0.5-0.5
			c0.1-0.2,0.1-0.4,0.1-0.6L23.9,11.5L23.9,11.5z M23.7,10.9l-0.8,0.5c-0.1-0.1-0.1-0.3-0.1-0.4c0-0.1,0.1-0.2,0.2-0.3
			c0.1-0.1,0.2-0.1,0.4,0C23.5,10.7,23.6,10.8,23.7,10.9L23.7,10.9z M25.7,11.4l-0.6,0.3l-1-2.1l0.5-0.3l0.1,0.3
			c0-0.2,0.1-0.3,0.1-0.4C24.9,9.1,25,9.1,25.1,9c0.1-0.1,0.3-0.1,0.4-0.1l0.1,0.6c-0.1,0-0.2,0-0.3,0c-0.1,0-0.1,0.1-0.2,0.2
			c0,0.1,0,0.2,0,0.3c0,0.1,0.1,0.4,0.3,0.7L25.7,11.4L25.7,11.4z M26.1,10.4l0.5-0.3c0.1,0.1,0.2,0.2,0.3,0.2c0.1,0,0.2,0,0.4-0.1
			c0.1-0.1,0.2-0.1,0.3-0.2c0-0.1,0-0.1,0-0.2c0,0,0-0.1-0.1-0.1c0,0-0.1,0-0.2,0c-0.5,0.1-0.8,0.1-1,0.1c-0.2,0-0.4-0.2-0.5-0.4
			c-0.1-0.2-0.1-0.4,0-0.6c0.1-0.2,0.3-0.4,0.6-0.5c0.3-0.1,0.5-0.2,0.7-0.2c0.2,0,0.4,0.1,0.5,0.3l-0.5,0.3
			c-0.1-0.1-0.1-0.1-0.2-0.1c-0.1,0-0.2,0-0.3,0.1c-0.2,0.1-0.3,0.1-0.3,0.2c0,0,0,0.1,0,0.1c0,0,0.1,0.1,0.1,0.1
			c0.1,0,0.3,0,0.6-0.1c0.3-0.1,0.6-0.1,0.8,0c0.2,0,0.3,0.2,0.4,0.3c0.1,0.2,0.1,0.4,0,0.6c-0.1,0.2-0.3,0.4-0.6,0.5
			c-0.3,0.1-0.6,0.2-0.8,0.1C26.5,10.7,26.3,10.6,26.1,10.4L26.1,10.4z M27.9,7.5l-0.2-0.6l0.6-0.2l0.2,0.6L27.9,7.5L27.9,7.5z
			 M28.8,10l0.6-0.2l-0.7-2.3L28,7.8L28.8,10L28.8,10z M30.1,7.1l0.2,0.5l-0.4,0.1l0.3,0.9c0.1,0.2,0.1,0.3,0.1,0.3c0,0,0,0,0.1,0.1
			c0,0,0.1,0,0.1,0c0.1,0,0.1-0.1,0.2-0.1l0.2,0.4c-0.1,0.1-0.3,0.2-0.4,0.2c-0.1,0-0.2,0-0.3,0c-0.1,0-0.2,0-0.2-0.1
			c-0.1,0-0.1-0.1-0.2-0.2c0-0.1-0.1-0.2-0.2-0.4l-0.3-1L29,8l-0.2-0.5l0.3-0.1L29,7l0.5-0.5l0.3,0.8L30.1,7.1L30.1,7.1z M30.3,7
			l1.4,2.2c0,0.1,0,0.3-0.1,0.4c-0.1,0.1-0.1,0.2-0.3,0.2c-0.1,0-0.2,0-0.3,0l0.2,0.5c0.1,0,0.2,0,0.4,0c0.1,0,0.2-0.1,0.3-0.1
			c0.1,0,0.2-0.1,0.2-0.2c0.1-0.1,0.1-0.1,0.1-0.2c0-0.1,0.1-0.2,0.1-0.3l0.1-0.4l0.3-2.4L32,6.6l-0.2,1.8l-0.9-1.5L30.3,7L30.3,7z
			 M34.5,7.2c0-0.2,0-0.4,0.1-0.6c0.1-0.2,0.2-0.4,0.4-0.5c0.2-0.1,0.4-0.2,0.6-0.2c0.4,0,0.7,0,0.9,0.2C36.8,6.3,36.9,6.6,37,7
			c0,0.4,0,0.7-0.2,0.9c-0.2,0.3-0.5,0.4-0.8,0.5c-0.2,0-0.4,0-0.6-0.1c-0.2-0.1-0.4-0.2-0.5-0.4C34.6,7.7,34.6,7.5,34.5,7.2
			L34.5,7.2z M35.2,7.2c0,0.2,0.1,0.4,0.2,0.5c0.1,0.1,0.3,0.2,0.4,0.1c0.2,0,0.3-0.1,0.4-0.2c0.1-0.1,0.1-0.3,0.1-0.6
			c0-0.2-0.1-0.4-0.2-0.5c-0.1-0.1-0.3-0.2-0.4-0.1c-0.2,0-0.3,0.1-0.4,0.2C35.2,6.8,35.1,7,35.2,7.2L35.2,7.2z M37,5.8l0,0.5l0.3,0
			l0.1,1.9l0.6,0L38,6.2l0.5,0l0-0.5l-0.5,0l0-0.2c0-0.1,0-0.2,0-0.2c0,0,0.1-0.1,0.2-0.1c0.1,0,0.2,0,0.3,0l0.1-0.4
			c-0.2,0-0.4-0.1-0.5,0c-0.2,0-0.3,0.1-0.4,0.1c-0.1,0.1-0.2,0.2-0.2,0.3c0,0.1,0,0.3,0,0.5l0,0.2L37,5.8L37,5.8z M40.3,8.1
			l0.1-3.3l2.3,0l0,0.6l-1.6,0l0,0.8l1.4,0l0,0.6l-1.4,0l0,1.4L40.3,8.1L40.3,8.1z M43.1,5.5l0-0.6l0.6,0l0,0.6L43.1,5.5L43.1,5.5z
			 M42.9,8.2L43,5.8l0.6,0l-0.2,2.4L42.9,8.2L42.9,8.2z M46.1,8.6l-0.6-0.1l0.2-1.2c0-0.3,0.1-0.4,0-0.5c0-0.1,0-0.1-0.1-0.2
			c-0.1-0.1-0.1-0.1-0.2-0.1c-0.1,0-0.2,0-0.3,0c-0.1,0-0.2,0.1-0.2,0.2c0,0.1-0.1,0.3-0.1,0.5l-0.2,1.1l-0.6-0.1l0.4-2.3L44.9,6
			l-0.1,0.3c0.3-0.2,0.5-0.3,0.8-0.3c0.1,0,0.3,0.1,0.4,0.1c0.1,0.1,0.2,0.1,0.2,0.2c0,0.1,0.1,0.2,0.1,0.3c0,0.1,0,0.2,0,0.4
			L46.1,8.6L46.1,8.6z M47.3,7.2L46.8,7c0.1-0.2,0.3-0.4,0.4-0.4c0.2-0.1,0.4-0.1,0.7,0c0.3,0.1,0.5,0.1,0.6,0.2
			c0.1,0.1,0.2,0.2,0.2,0.3c0,0.1,0,0.3,0,0.6l-0.2,0.7c0,0.2-0.1,0.4-0.1,0.5c0,0.1,0,0.2,0,0.3L47.9,9c0,0,0-0.1,0-0.2
			c0,0,0-0.1,0-0.1c-0.1,0.1-0.3,0.1-0.4,0.2c-0.1,0-0.3,0-0.4,0c-0.2-0.1-0.4-0.2-0.5-0.3c-0.1-0.2-0.1-0.3-0.1-0.5
			c0-0.1,0.1-0.2,0.2-0.3c0.1-0.1,0.2-0.2,0.3-0.2c0.1,0,0.3,0,0.5,0c0.3,0,0.5,0,0.6,0l0-0.1c0-0.1,0-0.2,0-0.3
			C48.1,7.1,48,7,47.8,7c-0.1,0-0.2,0-0.3,0C47.4,7,47.4,7.1,47.3,7.2L47.3,7.2z M48,7.9c-0.1,0-0.2,0-0.4,0c-0.2,0-0.3,0-0.4,0
			c-0.1,0-0.1,0.1-0.2,0.2c0,0.1,0,0.2,0,0.2c0.1,0.1,0.1,0.1,0.2,0.1c0.1,0,0.2,0,0.3,0c0.1,0,0.2-0.1,0.2-0.2C48,8.3,48,8.2,48,8
			L48,7.9L48,7.9z M50.9,9.9l-0.6-0.2l0.4-1.2c0.1-0.2,0.1-0.4,0.1-0.5c0-0.1,0-0.2-0.1-0.2c0-0.1-0.1-0.1-0.2-0.1
			c-0.1,0-0.2,0-0.3,0c-0.1,0-0.2,0.1-0.2,0.2c-0.1,0.1-0.1,0.3-0.2,0.5l-0.3,1l-0.6-0.2L49.6,7l0.6,0.2L50,7.5
			c0.3-0.2,0.6-0.2,0.9-0.1c0.1,0,0.2,0.1,0.3,0.2c0.1,0.1,0.2,0.2,0.2,0.3c0,0.1,0,0.2,0,0.3c0,0.1,0,0.2-0.1,0.4L50.9,9.9
			L50.9,9.9z M53.8,9.3c0-0.3,0-0.5-0.1-0.7c-0.1-0.2-0.3-0.3-0.6-0.4c-0.3-0.1-0.6-0.1-0.9,0c-0.3,0.1-0.5,0.4-0.6,0.7
			c-0.1,0.4-0.2,0.7,0,1c0.1,0.3,0.3,0.5,0.7,0.6c0.3,0.1,0.5,0.1,0.8,0.1c0.2-0.1,0.4-0.2,0.6-0.5L53,9.8c-0.1,0.1-0.2,0.2-0.3,0.3
			c-0.1,0-0.2,0-0.3,0c-0.1-0.1-0.2-0.2-0.3-0.3c0-0.1,0-0.3,0.1-0.6c0.1-0.2,0.2-0.4,0.3-0.5c0.1-0.1,0.3-0.1,0.4,0
			c0.1,0,0.2,0.1,0.2,0.2c0,0.1,0.1,0.2,0,0.3L53.8,9.3L53.8,9.3z M55,11l0.5,0.4c-0.2,0.2-0.4,0.3-0.6,0.3c-0.2,0-0.4,0-0.7-0.1
			c-0.4-0.2-0.6-0.4-0.6-0.8c0-0.3,0-0.5,0.2-0.8c0.2-0.4,0.4-0.6,0.7-0.7c0.3-0.1,0.6-0.1,0.9,0.1c0.3,0.2,0.5,0.4,0.6,0.7
			c0.1,0.3,0,0.7-0.2,1.1l-1.4-0.7c-0.1,0.2-0.1,0.3-0.1,0.5c0,0.1,0.1,0.2,0.3,0.3c0.1,0,0.2,0.1,0.3,0C54.9,11.1,55,11.1,55,11
			L55,11z M55.4,10.4c0.1-0.2,0.1-0.3,0.1-0.4c0-0.1-0.1-0.2-0.2-0.3c-0.1-0.1-0.2-0.1-0.4,0c-0.1,0-0.2,0.1-0.3,0.3L55.4,10.4
			L55.4,10.4z M58.1,11.7l-0.4-0.4c0.2-0.2,0.4-0.2,0.6-0.3c0.2,0,0.4,0.1,0.7,0.2c0.2,0.1,0.4,0.3,0.5,0.4c0.1,0.1,0.1,0.3,0.1,0.4
			c0,0.1-0.1,0.3-0.2,0.5l-0.4,0.6c-0.1,0.2-0.2,0.3-0.2,0.4c0,0.1-0.1,0.2-0.1,0.3l-0.5-0.3c0,0,0-0.1,0-0.2c0,0,0-0.1,0-0.1
			c-0.1,0-0.3,0-0.4,0c-0.1,0-0.3-0.1-0.4-0.1c-0.2-0.1-0.3-0.3-0.4-0.5c0-0.2,0-0.4,0.1-0.5c0.1-0.1,0.2-0.2,0.3-0.3
			c0.1-0.1,0.2-0.1,0.4-0.1c0.1,0,0.3,0.1,0.5,0.1c0.3,0.1,0.5,0.2,0.6,0.2l0-0.1c0.1-0.1,0.1-0.2,0.1-0.3c0-0.1-0.1-0.2-0.2-0.2
			c-0.1-0.1-0.2-0.1-0.3-0.1C58.3,11.6,58.2,11.7,58.1,11.7L58.1,11.7z M58.6,12.6c-0.1,0-0.2-0.1-0.4-0.1c-0.2-0.1-0.3-0.1-0.3-0.1
			c-0.1,0-0.2,0-0.2,0.1c0,0.1-0.1,0.2,0,0.2c0,0.1,0.1,0.2,0.2,0.2c0.1,0.1,0.2,0.1,0.3,0.1c0.1,0,0.2,0,0.2-0.1
			c0,0,0.1-0.1,0.2-0.2L58.6,12.6L58.6,12.6z M60.5,15.5l0.9-1.2c0.1-0.1,0.2-0.3,0.2-0.4c0-0.1,0.1-0.2,0.1-0.3
			c0-0.1,0-0.2-0.1-0.3c-0.1-0.1-0.1-0.2-0.3-0.3c-0.2-0.2-0.5-0.2-0.9-0.2l0.2-0.3l-0.5-0.4l-1.5,1.9l0.5,0.4l0.7-0.9
			c0.2-0.2,0.3-0.3,0.4-0.4c0.1-0.1,0.2-0.1,0.3-0.1c0.1,0,0.2,0,0.3,0.1c0.1,0.1,0.1,0.1,0.1,0.2c0,0.1,0,0.1,0,0.2
			c0,0.1-0.1,0.2-0.3,0.4l-0.7,1L60.5,15.5L60.5,15.5z M62.5,17.3L62,16.9l0.2-0.3c-0.2,0-0.3,0-0.5,0c-0.1,0-0.3-0.1-0.4-0.2
			c-0.2-0.2-0.3-0.4-0.3-0.7c0-0.3,0.1-0.6,0.4-0.9c0.3-0.3,0.6-0.5,0.8-0.5c0.3,0,0.5,0.1,0.7,0.3c0.2,0.2,0.3,0.4,0.3,0.7l0.8-0.9
			l0.5,0.4L62.5,17.3L62.5,17.3z M62.1,15.3c-0.2,0.2-0.3,0.3-0.3,0.5c0,0.2,0,0.3,0.1,0.5c0.1,0.1,0.2,0.1,0.4,0.1
			c0.2,0,0.3-0.1,0.5-0.3c0.2-0.2,0.3-0.4,0.3-0.5c0-0.2,0-0.3-0.2-0.4C62.8,15,62.7,15,62.5,15C62.4,15,62.2,15.1,62.1,15.3
			L62.1,15.3z M63.8,18.7l1.6,1.9l0.4-0.4l-1.2-1.4l0.7-0.6l1.1,1.2l0.4-0.4l-1.1-1.2l0.6-0.5l1.2,1.3l0.4-0.4l-1.6-1.8L63.8,18.7
			L63.8,18.7z M68.1,21.6l-0.5-0.4c0.1-0.1,0.1-0.2,0.1-0.3c0-0.1,0-0.2-0.1-0.3c-0.1-0.1-0.2-0.2-0.4-0.2c-0.1,0-0.3,0.1-0.5,0.2
			c-0.2,0.2-0.4,0.3-0.4,0.5c0,0.1,0,0.3,0.1,0.4c0.1,0.1,0.2,0.2,0.3,0.2c0.1,0,0.2,0,0.4-0.1l0.3,0.6c-0.3,0.1-0.5,0.1-0.7,0.1
			c-0.2-0.1-0.4-0.2-0.6-0.5c-0.2-0.3-0.3-0.6-0.2-0.9c0.1-0.3,0.2-0.6,0.6-0.8c0.3-0.2,0.6-0.3,0.9-0.3c0.3,0,0.6,0.2,0.8,0.5
			c0.2,0.2,0.3,0.5,0.3,0.7C68.4,21.2,68.3,21.4,68.1,21.6L68.1,21.6z M67.9,22.2c-0.2,0.1-0.4,0.3-0.5,0.5
			c-0.1,0.2-0.2,0.4-0.1,0.6c0,0.2,0.1,0.4,0.2,0.6c0.2,0.3,0.4,0.5,0.7,0.6c0.3,0.1,0.6,0,1-0.1c0.3-0.2,0.5-0.4,0.6-0.7
			c0.1-0.3,0-0.6-0.1-0.9c-0.1-0.2-0.3-0.4-0.5-0.5C69,22,68.8,22,68.5,22C68.3,22,68.1,22,67.9,22.2L67.9,22.2z M68.2,22.7
			c0.2-0.1,0.4-0.2,0.6-0.1c0.2,0,0.3,0.1,0.4,0.3c0.1,0.1,0.1,0.3,0,0.5c-0.1,0.2-0.2,0.3-0.4,0.4c-0.2,0.1-0.4,0.2-0.6,0.1
			c-0.2,0-0.3-0.1-0.4-0.3c-0.1-0.1-0.1-0.3,0-0.5C67.9,23,68,22.8,68.2,22.7L68.2,22.7z M69.2,27.1l-0.3-0.6L70,26
			c0.2-0.1,0.4-0.2,0.4-0.3c0.1-0.1,0.1-0.1,0.1-0.2c0-0.1,0-0.1,0-0.2c0-0.1-0.1-0.2-0.2-0.2C70.2,25,70.1,25,70,25
			c-0.1,0-0.3,0.1-0.5,0.2l-1,0.5l-0.3-0.6l2.1-1.1l0.3,0.5l-0.3,0.2c0.3,0.1,0.6,0.2,0.7,0.5c0.1,0.1,0.1,0.2,0.1,0.4
			c0,0.1,0,0.2-0.1,0.3c0,0.1-0.1,0.2-0.2,0.2c-0.1,0.1-0.2,0.1-0.4,0.2L69.2,27.1L69.2,27.1z M70.4,26.9c-0.3,0.1-0.5,0.2-0.6,0.4
			c-0.1,0.2-0.2,0.4-0.2,0.6c0,0.2,0,0.4,0.1,0.6c0.1,0.3,0.4,0.6,0.7,0.7c0.3,0.1,0.6,0.1,1,0c0.3-0.1,0.6-0.4,0.7-0.7
			c0.1-0.3,0.1-0.6,0-1c-0.1-0.2-0.2-0.4-0.4-0.5c-0.2-0.1-0.4-0.2-0.6-0.2C70.8,26.8,70.6,26.8,70.4,26.9L70.4,26.9z M70.6,27.5
			c0.2-0.1,0.4-0.1,0.6,0c0.2,0.1,0.3,0.2,0.3,0.3c0.1,0.2,0.1,0.3,0,0.5c-0.1,0.2-0.2,0.3-0.4,0.4c-0.2,0.1-0.4,0.1-0.6,0
			c-0.2-0.1-0.3-0.2-0.3-0.3c-0.1-0.2-0.1-0.3,0-0.5C70.3,27.7,70.4,27.6,70.6,27.5L70.6,27.5z M72.6,29.3l0.2,0.6l-0.3,0.1
			c0.3,0.1,0.5,0.3,0.6,0.6c0,0.1,0,0.3,0,0.4c0,0.1-0.1,0.2-0.2,0.3c0.2,0.1,0.3,0.1,0.4,0.2c0.1,0.1,0.2,0.2,0.2,0.3
			c0,0.2,0.1,0.3,0,0.5c0,0.1-0.1,0.3-0.2,0.3c-0.1,0.1-0.2,0.1-0.5,0.2l-1.5,0.4l-0.2-0.6l1.3-0.4c0.2-0.1,0.4-0.1,0.4-0.2
			c0.1-0.1,0.1-0.2,0.1-0.3c0-0.1-0.1-0.2-0.1-0.2c-0.1-0.1-0.2-0.1-0.3-0.1c-0.1,0-0.3,0-0.5,0.1l-1.1,0.3l-0.2-0.6l1.3-0.4
			c0.2-0.1,0.4-0.1,0.4-0.2c0.1,0,0.1-0.1,0.1-0.1c0-0.1,0-0.1,0-0.2c0-0.1-0.1-0.2-0.1-0.2c-0.1-0.1-0.2-0.1-0.3-0.1
			c-0.1,0-0.3,0-0.5,0.1l-1.1,0.3l-0.2-0.6L72.6,29.3L72.6,29.3z M73.9,33.2l0.6-0.1l0.1,0.6L74,33.8L73.9,33.2L73.9,33.2z
			 M71.2,33.7l0.1,0.6l2.3-0.5l-0.1-0.6L71.2,33.7z"/>
		<path class="st0" d="M73.4,36.6L73.2,36c0.1,0,0.2-0.1,0.3-0.2c0.1-0.1,0.1-0.2,0.1-0.3c0-0.2-0.1-0.3-0.2-0.4
			c-0.1-0.1-0.3-0.1-0.6-0.1c-0.3,0-0.5,0.1-0.6,0.2C72,35.5,72,35.6,72,35.8c0,0.1,0.1,0.2,0.1,0.3c0.1,0.1,0.2,0.1,0.4,0.1l0,0.6
			c-0.3,0-0.5-0.1-0.7-0.3c-0.2-0.2-0.3-0.4-0.3-0.7c0-0.3,0-0.6,0.2-0.9c0.2-0.2,0.5-0.4,0.9-0.4c0.4-0.1,0.7,0,1,0.2
			c0.2,0.2,0.4,0.4,0.4,0.8c0,0.3,0,0.5-0.1,0.7C73.8,36.4,73.6,36.5,73.4,36.6L73.4,36.6z M72.4,36.9l0.2,0.6
			c-0.1,0-0.2,0.1-0.3,0.2c-0.1,0.1-0.1,0.2-0.1,0.4c0,0.2,0.1,0.3,0.1,0.4c0,0.1,0.1,0.1,0.2,0.1c0,0,0.1,0,0.1-0.1
			c0,0,0-0.1,0.1-0.2c0.1-0.5,0.1-0.8,0.2-1c0.1-0.2,0.3-0.3,0.5-0.3c0.2,0,0.4,0,0.5,0.2c0.2,0.2,0.2,0.4,0.3,0.7
			c0,0.3,0,0.6-0.1,0.7c-0.1,0.2-0.2,0.3-0.4,0.4l-0.2-0.6c0.1,0,0.2-0.1,0.2-0.2c0-0.1,0.1-0.2,0-0.3c0-0.2,0-0.3-0.1-0.4
			c0,0-0.1-0.1-0.1-0.1c0,0-0.1,0-0.1,0.1c0,0.1-0.1,0.3-0.1,0.6c0,0.3-0.1,0.6-0.2,0.7c-0.1,0.1-0.3,0.2-0.5,0.2
			c-0.2,0-0.4-0.1-0.6-0.2c-0.2-0.2-0.3-0.4-0.3-0.8c0-0.3,0-0.6,0.1-0.8C72,37.1,72.1,36.9,72.4,36.9z"/>
	</g>
</g>
</svg>
